# MagicaVoxel @ Ephtracy

# material
mtllib alien-tree-3.mtl
usemtl palette

# normals
vn -1 0 0
vn 1 0 0
vn 0 0 1
vn 0 0 -1
vn 0 -1 0
vn 0 1 0

# texcoords
vt 0.271484 0.5
vt 0.537109 0.5

# verts
v -4.5 11 1
v -4.5 11 -0
v -4.5 12 2
v -4.5 12 1
v -4.5 12 -0
v -4.5 12 -1
v -4.5 13 2
v -4.5 13 1
v -4.5 13 -0
v -4.5 13 -1
v -4.5 14 1
v -4.5 14 -0
v -3.5 13 2
v -3.5 13 1
v -3.5 13 -0
v -3.5 13 -1
v -3.5 14 2
v -3.5 14 1
v -3.5 14 -0
v -3.5 14 -1
v -3.5 15 1
v -3.5 15 -0
v -2.5 10 1
v -2.5 10 -0
v -2.5 11 1
v -2.5 11 -0
v -1.5 0 1
v -1.5 0 -0
v -1.5 1 1
v -1.5 1 -0
v -1.5 9 -1
v -1.5 9 -2
v -1.5 10 -3
v -1.5 10 -4
v -1.5 11 -1
v -1.5 11 -2
v -1.5 11 -3
v -1.5 11 -4
v -0.5 0 2
v -0.5 0 1
v -0.5 0 -0
v -0.5 0 -1
v -0.5 1 1
v -0.5 1 -0
v -0.5 5 2
v -0.5 5 -1
v -0.5 9 6
v -0.5 9 3
v -0.5 9 1
v -0.5 9 -1
v -0.5 9 -3
v -0.5 9 -4
v -0.5 10 6
v -0.5 10 5
v -0.5 10 4
v -0.5 10 3
v -0.5 10 1
v -0.5 10 -0
v -0.5 10 -2
v -0.5 10 -3
v -0.5 10 -4
v -0.5 10 -5
v -0.5 11 5
v -0.5 11 4
v -0.5 11 -0
v -0.5 11 -1
v -0.5 11 -2
v -0.5 11 -3
v -0.5 11 -4
v -0.5 11 -5
v -0.5 12 -2
v -0.5 12 -4
v 0.5 5 2
v 0.5 5 -1
v 0.5 7 4
v 0.5 7 2
v 0.5 8 5
v 0.5 8 4
v 0.5 8 3
v 0.5 8 2
v 0.5 9 5
v 0.5 9 4
v 0.5 9 3
v 0.5 9 1
v 0.5 9 -1
v 0.5 10 2
v 0.5 10 1
v 0.5 11 -1
v 0.5 11 -2
v 0.5 12 -1
v 0.5 12 -2
v 2.5 7 -3
v 2.5 7 -5
v 2.5 8 -2
v 2.5 8 -3
v 2.5 8 -5
v 2.5 9 -2
v 2.5 9 -3
v 3.5 7 -2
v 3.5 7 -3
v 3.5 8 -0
v 3.5 8 -1
v 3.5 8 -2
v 3.5 8 -3
v 3.5 8 -5
v 3.5 9 -0
v 3.5 9 -1
v 3.5 9 -2
v 3.5 9 -3
v 3.5 9 -5
v 3.5 10 -1
v 3.5 10 -3
v 4.5 7 -4
v 4.5 7 -5
v 4.5 8 -4
v 4.5 8 -5
v -2.5 12 2
v -2.5 12 1
v -2.5 12 -0
v -2.5 12 -1
v -2.5 14 2
v -2.5 14 1
v -2.5 14 -0
v -2.5 14 -1
v -2.5 15 1
v -2.5 15 -0
v -1.5 11 1
v -1.5 11 -0
v -1.5 12 1
v -1.5 12 -0
v -1.5 14 1
v -1.5 14 -0
v 0.5 10 -4
v 0.5 10 -5
v 0.5 11 -3
v 0.5 11 -4
v 0.5 11 -5
v 0.5 12 -3
v 0.5 12 -4
v 1.5 7 4
v 1.5 7 2
v 1.5 8 5
v 1.5 8 4
v 1.5 8 3
v 1.5 8 2
v 1.5 9 6
v 1.5 9 5
v 1.5 9 4
v 1.5 9 2
v 1.5 9 -0
v 1.5 9 -3
v 1.5 9 -4
v 1.5 10 6
v 1.5 10 5
v 1.5 10 4
v 1.5 10 3
v 1.5 10 2
v 1.5 10 1
v 1.5 10 -0
v 1.5 10 -2
v 1.5 10 -3
v 1.5 10 -4
v 1.5 11 -0
v 1.5 11 -1
v 1.5 11 -2
v 1.5 11 -3
v 1.5 12 -1
v 1.5 12 -3
v 2.5 0 2
v 2.5 0 -1
v 2.5 7 -0
v 2.5 7 -1
v 2.5 8 -0
v 2.5 8 -1
v 2.5 9 5
v 2.5 9 4
v 2.5 9 2
v 2.5 9 -0
v 2.5 9 -1
v 2.5 9 -2
v 2.5 10 -0
v 2.5 10 -2
v 2.5 10 -3
v 2.5 10 -4
v 2.5 11 5
v 2.5 11 4
v 2.5 11 -3
v 2.5 11 -4
v 3.5 7 -4
v 3.5 7 -5
v 3.5 8 -4
v 3.5 8 -5
v 3.5 10 1
v 3.5 10 -0
v 3.5 11 1
v 3.5 11 -0
v 4.5 8 -0
v 4.5 8 -1
v 4.5 8 -2
v 4.5 8 -4
v 4.5 8 -5
v 4.5 9 -0
v 4.5 9 -1
v 4.5 9 -2
v 4.5 9 -3
v 4.5 9 -4
v 4.5 9 -5
v 4.5 10 -2
v 4.5 10 -3
v 5.5 7 -0
v 5.5 7 -1
v 5.5 7 -2
v 5.5 7 -5
v 5.5 8 -0
v 5.5 8 -1
v 5.5 8 -4
v 5.5 8 -5
v 5.5 9 -1
v 5.5 9 -2
v 5.5 9 -4
v 5.5 10 -1
v 5.5 10 -2
v -0.5 9 6
v -0.5 10 6
v 1.5 9 6
v 1.5 10 6
v -0.5 10 5
v -0.5 11 5
v 0.5 8 5
v 0.5 9 5
v 1.5 8 5
v 1.5 9 5
v 1.5 10 5
v 2.5 9 5
v 2.5 11 5
v 0.5 7 4
v 0.5 8 4
v 1.5 7 4
v 1.5 8 4
v -4.5 12 2
v -4.5 13 2
v -3.5 13 2
v -3.5 14 2
v -2.5 12 2
v -2.5 14 2
v -0.5 0 2
v -0.5 5 2
v 0.5 5 2
v 0.5 7 2
v 0.5 8 2
v 0.5 10 2
v 1.5 7 2
v 1.5 8 2
v 1.5 9 2
v 1.5 10 2
v 2.5 0 2
v 2.5 9 2
v -4.5 11 1
v -4.5 12 1
v -4.5 13 1
v -4.5 14 1
v -3.5 11 1
v -3.5 12 1
v -3.5 13 1
v -3.5 14 1
v -3.5 15 1
v -2.5 10 1
v -2.5 11 1
v -2.5 12 1
v -2.5 14 1
v -2.5 15 1
v -1.5 0 1
v -1.5 1 1
v -1.5 11 1
v -1.5 12 1
v -1.5 14 1
v -0.5 0 1
v -0.5 1 1
v -0.5 9 1
v -0.5 10 1
v 0.5 9 1
v 0.5 10 1
v 1.5 10 1
v 3.5 10 1
v 3.5 11 1
v 1.5 9 -0
v 1.5 10 -0
v 2.5 7 -0
v 2.5 8 -0
v 2.5 9 -0
v 2.5 10 -0
v 3.5 8 -0
v 3.5 9 -0
v 4.5 8 -0
v 4.5 9 -0
v 5.5 7 -0
v 5.5 8 -0
v -1.5 9 -1
v -1.5 11 -1
v -0.5 9 -1
v -0.5 11 -1
v 0.5 11 -1
v 0.5 12 -1
v 1.5 11 -1
v 1.5 12 -1
v 3.5 9 -1
v 3.5 10 -1
v 4.5 9 -1
v 5.5 9 -1
v 5.5 10 -1
v -0.5 11 -2
v -0.5 12 -2
v 0.5 11 -2
v 0.5 12 -2
v 2.5 8 -2
v 2.5 9 -2
v 3.5 7 -2
v 3.5 8 -2
v 3.5 9 -2
v 4.5 8 -2
v 4.5 9 -2
v 5.5 7 -2
v 5.5 9 -2
v -1.5 10 -3
v -1.5 11 -3
v -0.5 9 -3
v -0.5 10 -3
v -0.5 11 -3
v 0.5 10 -3
v 1.5 9 -3
v 1.5 10 -3
v 1.5 11 -3
v 2.5 7 -3
v 2.5 8 -3
v 2.5 10 -3
v 2.5 11 -3
v 3.5 7 -3
v 3.5 8 -3
v -0.5 10 4
v -0.5 11 4
v 0.5 10 4
v 1.5 9 4
v 1.5 10 4
v 2.5 9 4
v 2.5 11 4
v -0.5 9 3
v -0.5 10 3
v 0.5 8 3
v 0.5 9 3
v 0.5 10 3
v 1.5 8 3
v 1.5 10 3
v -4.5 11 -0
v -4.5 12 -0
v -4.5 13 -0
v -4.5 14 -0
v -3.5 11 -0
v -3.5 12 -0
v -3.5 13 -0
v -3.5 14 -0
v -3.5 15 -0
v -2.5 10 -0
v -2.5 11 -0
v -2.5 12 -0
v -2.5 14 -0
v -2.5 15 -0
v -1.5 0 -0
v -1.5 1 -0
v -1.5 11 -0
v -1.5 12 -0
v -1.5 14 -0
v -0.5 0 -0
v -0.5 1 -0
v -0.5 10 -0
v -0.5 11 -0
v 1.5 10 -0
v 1.5 11 -0
v 2.5 10 -0
v 3.5 10 -0
v 3.5 11 -0
v -4.5 12 -1
v -4.5 13 -1
v -3.5 13 -1
v -3.5 14 -1
v -2.5 12 -1
v -2.5 14 -1
v -0.5 0 -1
v -0.5 5 -1
v 0.5 5 -1
v 0.5 9 -1
v 2.5 0 -1
v 2.5 7 -1
v 2.5 8 -1
v 2.5 9 -1
v 3.5 8 -1
v 4.5 8 -1
v 5.5 7 -1
v 5.5 8 -1
v -1.5 9 -2
v -1.5 11 -2
v -0.5 9 -2
v -0.5 10 -2
v -0.5 11 -2
v 0.5 10 -2
v 1.5 10 -2
v 2.5 9 -2
v 2.5 10 -2
v 4.5 9 -2
v 4.5 10 -2
v 5.5 9 -2
v 5.5 10 -2
v 0.5 11 -3
v 0.5 12 -3
v 1.5 11 -3
v 1.5 12 -3
v 2.5 8 -3
v 2.5 9 -3
v 3.5 8 -3
v 3.5 9 -3
v 3.5 10 -3
v 4.5 9 -3
v 4.5 10 -3
v -1.5 10 -4
v -1.5 11 -4
v -0.5 9 -4
v -0.5 10 -4
v -0.5 11 -4
v -0.5 12 -4
v 0.5 10 -4
v 0.5 11 -4
v 0.5 12 -4
v 1.5 9 -4
v 1.5 10 -4
v 2.5 10 -4
v 2.5 11 -4
v 3.5 7 -4
v 3.5 8 -4
v 4.5 7 -4
v 4.5 8 -4
v 4.5 9 -4
v 5.5 8 -4
v 5.5 9 -4
v -0.5 10 -5
v -0.5 11 -5
v 0.5 10 -5
v 0.5 11 -5
v 2.5 7 -5
v 2.5 8 -5
v 3.5 7 -5
v 3.5 8 -5
v 3.5 9 -5
v 4.5 7 -5
v 4.5 8 -5
v 4.5 9 -5
v 5.5 7 -5
v 5.5 8 -5
v -0.5 0 2
v 2.5 0 2
v -1.5 0 1
v -0.5 0 1
v -1.5 0 -0
v -0.5 0 -0
v -0.5 0 -1
v 2.5 0 -1
v 0.5 7 4
v 1.5 7 4
v 0.5 7 2
v 1.5 7 2
v 2.5 7 -0
v 5.5 7 -0
v 2.5 7 -1
v 5.5 7 -1
v 3.5 7 -2
v 5.5 7 -2
v 2.5 7 -3
v 3.5 7 -3
v 3.5 7 -4
v 4.5 7 -4
v 2.5 7 -5
v 3.5 7 -5
v 4.5 7 -5
v 5.5 7 -5
v 0.5 8 5
v 1.5 8 5
v 0.5 8 4
v 1.5 8 4
v 3.5 8 -1
v 4.5 8 -1
v 2.5 8 -2
v 3.5 8 -2
v 4.5 8 -2
v 2.5 8 -3
v 3.5 8 -3
v 3.5 8 -4
v 4.5 8 -4
v 3.5 8 -5
v 4.5 8 -5
v -0.5 9 6
v 1.5 9 6
v 0.5 9 5
v 1.5 9 5
v 2.5 9 5
v 0.5 9 4
v 1.5 9 4
v 2.5 9 4
v -0.5 9 3
v 0.5 9 3
v -0.5 9 1
v 0.5 9 1
v -1.5 9 -1
v -0.5 9 -1
v 0.5 9 -1
v 2.5 9 -1
v 4.5 9 -1
v 5.5 9 -1
v -1.5 9 -2
v -0.5 9 -2
v 2.5 9 -2
v 4.5 9 -2
v 5.5 9 -2
v -0.5 9 -3
v 1.5 9 -3
v -0.5 9 -4
v 1.5 9 -4
v -2.5 10 1
v -0.5 10 1
v 1.5 10 1
v 3.5 10 1
v -2.5 10 -0
v -0.5 10 -0
v 1.5 10 -0
v 2.5 10 -0
v 3.5 10 -0
v -0.5 10 -2
v 0.5 10 -2
v 1.5 10 -2
v -1.5 10 -3
v -0.5 10 -3
v 0.5 10 -3
v 1.5 10 -3
v 2.5 10 -3
v -1.5 10 -4
v -0.5 10 -4
v 0.5 10 -4
v 1.5 10 -4
v 2.5 10 -4
v -0.5 10 -5
v 0.5 10 -5
v -4.5 11 1
v -3.5 11 1
v -2.5 11 1
v -4.5 11 -0
v -3.5 11 -0
v -2.5 11 -0
v -4.5 12 2
v -2.5 12 2
v -4.5 12 1
v -3.5 12 1
v -2.5 12 1
v -4.5 12 -0
v -3.5 12 -0
v -2.5 12 -0
v -4.5 12 -1
v -2.5 12 -1
v -1.5 1 1
v -0.5 1 1
v -1.5 1 -0
v -0.5 1 -0
v -0.5 5 2
v 0.5 5 2
v -0.5 5 -1
v 0.5 5 -1
v 0.5 8 3
v 1.5 8 3
v 0.5 8 2
v 1.5 8 2
v 2.5 8 -0
v 3.5 8 -0
v 4.5 8 -0
v 5.5 8 -0
v 2.5 8 -1
v 3.5 8 -1
v 4.5 8 -1
v 5.5 8 -1
v 2.5 8 -3
v 3.5 8 -3
v 4.5 8 -4
v 5.5 8 -4
v 2.5 8 -5
v 3.5 8 -5
v 4.5 8 -5
v 5.5 8 -5
v 1.5 9 2
v 2.5 9 2
v 1.5 9 -0
v 2.5 9 -0
v 3.5 9 -0
v 4.5 9 -0
v 3.5 9 -1
v 4.5 9 -1
v 2.5 9 -2
v 3.5 9 -2
v 4.5 9 -2
v 5.5 9 -2
v 2.5 9 -3
v 3.5 9 -3
v 4.5 9 -3
v 4.5 9 -4
v 5.5 9 -4
v 3.5 9 -5
v 4.5 9 -5
v -0.5 10 6
v 1.5 10 6
v -0.5 10 5
v 1.5 10 5
v -0.5 10 4
v 0.5 10 4
v 1.5 10 4
v -0.5 10 3
v 0.5 10 3
v 1.5 10 3
v 0.5 10 2
v 1.5 10 2
v 0.5 10 1
v 1.5 10 1
v 1.5 10 -0
v 2.5 10 -0
v 3.5 10 -1
v 5.5 10 -1
v 1.5 10 -2
v 2.5 10 -2
v 4.5 10 -2
v 5.5 10 -2
v 3.5 10 -3
v 4.5 10 -3
v -0.5 11 5
v 2.5 11 5
v -0.5 11 4
v 2.5 11 4
v -1.5 11 1
v 3.5 11 1
v -1.5 11 -0
v -0.5 11 -0
v 1.5 11 -0
v 3.5 11 -0
v -1.5 11 -1
v -0.5 11 -1
v 0.5 11 -1
v 1.5 11 -1
v -1.5 11 -2
v -0.5 11 -2
v 0.5 11 -2
v -1.5 11 -3
v -0.5 11 -3
v 0.5 11 -3
v 1.5 11 -3
v 2.5 11 -3
v -1.5 11 -4
v -0.5 11 -4
v 0.5 11 -4
v 2.5 11 -4
v -0.5 11 -5
v 0.5 11 -5
v 0.5 12 -1
v 1.5 12 -1
v -0.5 12 -2
v 0.5 12 -2
v 0.5 12 -3
v 1.5 12 -3
v -0.5 12 -4
v 0.5 12 -4
v -4.5 13 2
v -3.5 13 2
v -4.5 13 1
v -3.5 13 1
v -4.5 13 -0
v -3.5 13 -0
v -4.5 13 -1
v -3.5 13 -1
v -3.5 14 2
v -2.5 14 2
v -4.5 14 1
v -3.5 14 1
v -2.5 14 1
v -1.5 14 1
v -4.5 14 -0
v -3.5 14 -0
v -2.5 14 -0
v -1.5 14 -0
v -3.5 14 -1
v -2.5 14 -1
v -3.5 15 1
v -2.5 15 1
v -3.5 15 -0
v -2.5 15 -0

# faces
f 4/1/1 2/1/1 1/1/1
f 5/1/1 2/1/1 4/1/1
f 7/1/1 4/1/1 3/1/1
f 7/1/1 6/1/1 5/1/1
f 7/1/1 5/1/1 4/1/1
f 8/1/1 6/1/1 7/1/1
f 9/1/1 6/1/1 8/1/1
f 10/1/1 6/1/1 9/1/1
f 11/1/1 9/1/1 8/1/1
f 12/1/1 9/1/1 11/1/1
f 17/1/1 14/1/1 13/1/1
f 18/1/1 14/1/1 17/1/1
f 19/1/1 16/1/1 15/1/1
f 20/1/1 16/1/1 19/1/1
f 21/1/1 19/1/1 18/1/1
f 22/1/1 19/1/1 21/1/1
f 25/2/1 24/2/1 23/2/1
f 26/2/1 24/2/1 25/2/1
f 29/2/1 28/2/1 27/2/1
f 30/2/1 28/2/1 29/2/1
f 35/1/1 32/1/1 31/1/1
f 36/1/1 32/1/1 35/1/1
f 37/1/1 34/1/1 33/1/1
f 38/1/1 34/1/1 37/1/1
f 43/2/1 40/2/1 39/2/1
f 44/2/1 42/2/1 41/2/1
f 45/2/1 43/2/1 39/2/1
f 45/2/1 44/2/1 43/2/1
f 46/2/1 42/2/1 44/2/1
f 46/2/1 44/2/1 45/2/1
f 53/1/1 48/1/1 47/1/1
f 54/1/1 48/1/1 53/1/1
f 55/1/1 48/1/1 54/1/1
f 56/1/1 48/1/1 55/1/1
f 57/2/1 50/2/1 49/2/1
f 58/2/1 50/2/1 57/2/1
f 60/1/1 52/1/1 51/1/1
f 61/1/1 52/1/1 60/1/1
f 63/1/1 55/1/1 54/1/1
f 64/1/1 55/1/1 63/1/1
f 65/2/1 50/2/1 58/2/1
f 66/2/1 50/2/1 65/2/1
f 67/2/1 60/2/1 59/2/1
f 68/2/1 60/2/1 67/2/1
f 69/1/1 62/1/1 61/1/1
f 70/1/1 62/1/1 69/1/1
f 71/1/1 68/1/1 67/1/1
f 71/1/1 69/1/1 68/1/1
f 72/1/1 69/1/1 71/1/1
f 76/2/1 74/2/1 73/2/1
f 78/2/1 76/2/1 75/2/1
f 79/2/1 76/2/1 78/2/1
f 80/2/1 74/2/1 76/2/1
f 80/2/1 76/2/1 79/2/1
f 81/1/1 78/1/1 77/1/1
f 82/2/1 79/2/1 78/2/1
f 82/1/1 78/1/1 81/1/1
f 83/2/1 79/2/1 82/2/1
f 84/2/1 74/2/1 80/2/1
f 85/2/1 74/2/1 84/2/1
f 86/2/1 84/2/1 80/2/1
f 87/2/1 84/2/1 86/2/1
f 90/1/1 89/1/1 88/1/1
f 91/1/1 89/1/1 90/1/1
f 95/1/1 93/1/1 92/1/1
f 96/1/1 93/1/1 95/1/1
f 97/1/1 95/1/1 94/1/1
f 98/1/1 95/1/1 97/1/1
f 103/1/1 100/1/1 99/1/1
f 104/1/1 100/1/1 103/1/1
f 106/2/1 102/2/1 101/2/1
f 106/2/1 103/2/1 102/2/1
f 107/2/1 103/2/1 106/2/1
f 108/2/1 103/2/1 107/2/1
f 109/1/1 105/1/1 104/1/1
f 110/1/1 105/1/1 109/1/1
f 111/1/1 108/1/1 107/1/1
f 111/1/1 109/1/1 108/1/1
f 112/1/1 109/1/1 111/1/1
f 115/1/1 114/1/1 113/1/1
f 116/1/1 114/1/1 115/1/1
f 117/1/2 118/1/2 121/1/2
f 121/1/2 118/1/2 122/1/2
f 119/1/2 120/1/2 123/1/2
f 123/1/2 120/1/2 124/1/2
f 122/1/2 123/1/2 125/1/2
f 125/1/2 123/1/2 126/1/2
f 127/2/2 128/2/2 129/2/2
f 129/2/2 128/2/2 130/2/2
f 129/1/2 130/1/2 131/1/2
f 131/1/2 130/1/2 132/1/2
f 133/1/2 134/1/2 136/1/2
f 136/1/2 134/1/2 137/1/2
f 135/1/2 136/1/2 138/1/2
f 138/1/2 136/1/2 139/1/2
f 140/2/2 141/2/2 143/2/2
f 143/2/2 141/2/2 144/2/2
f 144/2/2 141/2/2 145/2/2
f 142/1/2 143/1/2 147/1/2
f 143/2/2 144/2/2 148/2/2
f 147/1/2 143/1/2 148/1/2
f 146/1/2 147/1/2 153/1/2
f 153/1/2 147/1/2 154/1/2
f 148/2/2 144/2/2 155/2/2
f 155/2/2 144/2/2 156/2/2
f 149/2/2 150/2/2 157/2/2
f 157/2/2 150/2/2 158/2/2
f 158/2/2 150/2/2 159/2/2
f 151/1/2 152/1/2 161/1/2
f 161/1/2 152/1/2 162/1/2
f 159/2/2 160/2/2 163/2/2
f 163/2/2 160/2/2 164/2/2
f 160/1/2 161/1/2 165/1/2
f 164/2/2 160/2/2 165/2/2
f 165/1/2 161/1/2 166/1/2
f 164/1/2 165/1/2 167/1/2
f 165/1/2 166/1/2 167/1/2
f 167/1/2 166/1/2 168/1/2
f 169/2/2 170/2/2 171/2/2
f 171/2/2 170/2/2 172/2/2
f 169/2/2 171/2/2 173/2/2
f 169/2/2 173/2/2 177/2/2
f 173/2/2 174/2/2 177/2/2
f 177/2/2 174/2/2 178/2/2
f 178/2/2 174/2/2 179/2/2
f 178/2/2 179/2/2 181/2/2
f 179/2/2 180/2/2 181/2/2
f 181/2/2 180/2/2 182/2/2
f 175/1/2 176/1/2 185/1/2
f 185/1/2 176/1/2 186/1/2
f 183/1/2 184/1/2 187/1/2
f 187/1/2 184/1/2 188/1/2
f 189/1/2 190/1/2 191/1/2
f 191/1/2 190/1/2 192/1/2
f 193/2/2 194/2/2 195/2/2
f 195/2/2 194/2/2 196/2/2
f 197/2/2 198/2/2 202/2/2
f 198/2/2 199/2/2 202/2/2
f 202/2/2 199/2/2 203/2/2
f 203/2/2 199/2/2 204/2/2
f 200/1/2 201/1/2 206/1/2
f 206/1/2 201/1/2 207/1/2
f 204/1/2 205/1/2 208/1/2
f 208/1/2 205/1/2 209/1/2
f 210/2/2 211/2/2 214/2/2
f 214/2/2 211/2/2 215/2/2
f 212/1/2 213/1/2 216/1/2
f 216/1/2 213/1/2 217/1/2
f 212/1/2 216/1/2 219/1/2
f 219/1/2 216/1/2 220/1/2
f 218/1/2 219/1/2 221/1/2
f 221/1/2 219/1/2 222/1/2
f 225/1/3 224/1/3 223/1/3
f 226/1/3 224/1/3 225/1/3
f 231/1/3 230/1/3 229/1/3
f 232/1/3 230/1/3 231/1/3
f 233/1/3 228/1/3 227/1/3
f 234/1/3 233/1/3 232/1/3
f 235/1/3 228/1/3 233/1/3
f 235/1/3 233/1/3 234/1/3
f 238/2/3 237/2/3 236/2/3
f 239/2/3 237/2/3 238/2/3
f 242/1/3 241/1/3 240/1/3
f 244/1/3 242/1/3 240/1/3
f 244/1/3 243/1/3 242/1/3
f 245/1/3 243/1/3 244/1/3
f 248/2/3 247/2/3 246/2/3
f 252/2/3 249/2/3 248/2/3
f 253/2/3 251/2/3 250/2/3
f 254/2/3 251/2/3 253/2/3
f 255/2/3 251/2/3 254/2/3
f 256/2/3 248/2/3 246/2/3
f 256/2/3 252/2/3 248/2/3
f 256/2/3 254/2/3 253/2/3
f 256/2/3 253/2/3 252/2/3
f 257/2/3 254/2/3 256/2/3
f 262/1/3 259/1/3 258/1/3
f 263/1/3 259/1/3 262/1/3
f 264/1/3 261/1/3 260/1/3
f 265/1/3 261/1/3 264/1/3
f 268/2/3 263/2/3 262/2/3
f 269/2/3 263/2/3 268/2/3
f 270/1/3 266/1/3 265/1/3
f 271/1/3 266/1/3 270/1/3
f 274/2/3 269/2/3 268/2/3
f 274/2/3 268/2/3 267/2/3
f 275/1/3 270/1/3 269/1/3
f 275/2/3 269/2/3 274/2/3
f 276/1/3 270/1/3 275/1/3
f 277/2/3 273/2/3 272/2/3
f 278/2/3 273/2/3 277/2/3
f 280/2/3 274/2/3 267/2/3
f 281/2/3 280/2/3 279/2/3
f 282/2/3 274/2/3 280/2/3
f 282/2/3 280/2/3 281/2/3
f 283/2/3 274/2/3 282/2/3
f 284/2/3 274/2/3 283/2/3
f 285/2/3 274/2/3 284/2/3
f 290/2/3 287/2/3 286/2/3
f 291/2/3 287/2/3 290/2/3
f 292/2/3 289/2/3 288/2/3
f 294/2/3 292/2/3 288/2/3
f 294/2/3 293/2/3 292/2/3
f 295/2/3 293/2/3 294/2/3
f 296/2/3 294/2/3 288/2/3
f 297/2/3 294/2/3 296/2/3
f 300/1/3 299/1/3 298/1/3
f 301/1/3 299/1/3 300/1/3
f 304/1/3 303/1/3 302/1/3
f 305/1/3 303/1/3 304/1/3
f 308/1/3 307/1/3 306/1/3
f 309/1/3 307/1/3 308/1/3
f 310/1/3 307/1/3 309/1/3
f 313/1/3 312/1/3 311/1/3
f 314/1/3 312/1/3 313/1/3
f 318/1/3 316/1/3 315/1/3
f 319/1/3 316/1/3 318/1/3
f 320/1/3 318/1/3 317/1/3
f 322/1/3 320/1/3 317/1/3
f 322/1/3 321/1/3 320/1/3
f 323/1/3 321/1/3 322/1/3
f 327/1/3 325/1/3 324/1/3
f 328/1/3 325/1/3 327/1/3
f 329/1/3 327/1/3 326/1/3
f 330/1/3 329/1/3 326/1/3
f 331/1/3 329/1/3 330/1/3
f 335/1/3 332/1/3 331/1/3
f 336/1/3 332/1/3 335/1/3
f 337/1/3 334/1/3 333/1/3
f 338/1/3 334/1/3 337/1/3
f 339/1/4 340/1/4 341/1/4
f 341/1/4 340/1/4 343/1/4
f 342/1/4 343/1/4 344/1/4
f 343/1/4 340/1/4 345/1/4
f 344/1/4 343/1/4 345/1/4
f 346/1/4 347/1/4 349/1/4
f 349/1/4 347/1/4 350/1/4
f 348/2/4 349/2/4 351/2/4
f 349/2/4 350/2/4 351/2/4
f 351/2/4 350/2/4 352/2/4
f 353/1/4 354/1/4 357/1/4
f 357/1/4 354/1/4 358/1/4
f 355/1/4 356/1/4 359/1/4
f 359/1/4 356/1/4 360/1/4
f 357/2/4 358/2/4 363/2/4
f 363/2/4 358/2/4 364/2/4
f 360/1/4 361/1/4 365/1/4
f 365/1/4 361/1/4 366/1/4
f 363/2/4 364/2/4 369/2/4
f 362/2/4 363/2/4 369/2/4
f 364/1/4 365/1/4 370/1/4
f 369/2/4 364/2/4 370/2/4
f 370/1/4 365/1/4 371/1/4
f 367/2/4 368/2/4 372/2/4
f 372/2/4 368/2/4 373/2/4
f 362/2/4 369/2/4 374/2/4
f 374/2/4 369/2/4 375/2/4
f 376/2/4 377/2/4 378/2/4
f 378/2/4 377/2/4 379/2/4
f 379/2/4 377/2/4 380/2/4
f 381/1/4 382/1/4 383/1/4
f 381/1/4 383/1/4 385/1/4
f 383/1/4 384/1/4 385/1/4
f 385/1/4 384/1/4 386/1/4
f 387/2/4 388/2/4 389/2/4
f 387/2/4 389/2/4 391/2/4
f 389/2/4 390/2/4 391/2/4
f 391/2/4 390/2/4 392/2/4
f 392/2/4 390/2/4 393/2/4
f 393/2/4 390/2/4 394/2/4
f 392/2/4 393/2/4 395/2/4
f 392/2/4 395/2/4 396/2/4
f 392/2/4 396/2/4 397/2/4
f 397/2/4 396/2/4 398/2/4
f 399/1/4 400/1/4 401/1/4
f 401/1/4 400/1/4 402/1/4
f 402/1/4 400/1/4 403/1/4
f 401/2/4 402/2/4 404/2/4
f 401/2/4 404/2/4 405/2/4
f 401/2/4 405/2/4 406/2/4
f 406/2/4 405/2/4 407/2/4
f 408/1/4 409/1/4 410/1/4
f 410/1/4 409/1/4 411/1/4
f 412/1/4 413/1/4 414/1/4
f 414/1/4 413/1/4 415/1/4
f 416/1/4 417/1/4 418/1/4
f 418/1/4 417/1/4 419/1/4
f 419/1/4 420/1/4 421/1/4
f 421/1/4 420/1/4 422/1/4
f 423/1/4 424/1/4 426/1/4
f 426/1/4 424/1/4 427/1/4
f 425/1/4 426/1/4 429/1/4
f 427/1/4 428/1/4 430/1/4
f 430/1/4 428/1/4 431/1/4
f 425/1/4 429/1/4 432/1/4
f 429/1/4 430/1/4 432/1/4
f 432/1/4 430/1/4 433/1/4
f 433/1/4 430/1/4 434/1/4
f 434/1/4 430/1/4 435/1/4
f 436/1/4 437/1/4 438/1/4
f 438/1/4 437/1/4 439/1/4
f 439/1/4 440/1/4 441/1/4
f 441/1/4 440/1/4 442/1/4
f 443/1/4 444/1/4 445/1/4
f 445/1/4 444/1/4 446/1/4
f 447/1/4 448/1/4 449/1/4
f 449/1/4 448/1/4 450/1/4
f 450/1/4 451/1/4 453/1/4
f 453/1/4 451/1/4 454/1/4
f 452/1/4 453/1/4 455/1/4
f 455/1/4 453/1/4 456/1/4
f 460/2/5 458/2/5 457/2/5
f 461/2/5 460/2/5 459/2/5
f 462/2/5 458/2/5 460/2/5
f 462/2/5 460/2/5 461/2/5
f 463/2/5 458/2/5 462/2/5
f 464/2/5 458/2/5 463/2/5
f 467/2/5 466/2/5 465/2/5
f 468/2/5 466/2/5 467/2/5
f 471/2/5 470/2/5 469/2/5
f 472/2/5 470/2/5 471/2/5
f 476/1/5 474/1/5 473/1/5
f 477/1/5 474/1/5 476/1/5
f 477/1/5 476/1/5 475/1/5
f 478/1/5 474/1/5 477/1/5
f 479/1/5 477/1/5 475/1/5
f 480/1/5 477/1/5 479/1/5
f 481/1/5 474/1/5 478/1/5
f 482/1/5 474/1/5 481/1/5
f 485/1/5 484/1/5 483/1/5
f 486/1/5 484/1/5 485/1/5
f 490/2/5 488/2/5 487/2/5
f 491/2/5 488/2/5 490/2/5
f 492/1/5 490/1/5 489/1/5
f 493/1/5 490/1/5 492/1/5
f 496/1/5 495/1/5 494/1/5
f 497/1/5 495/1/5 496/1/5
f 500/1/5 499/1/5 498/1/5
f 501/1/5 499/1/5 500/1/5
f 503/1/5 500/1/5 498/1/5
f 504/1/5 502/1/5 501/1/5
f 505/1/5 502/1/5 504/1/5
f 506/1/5 503/1/5 498/1/5
f 507/1/5 503/1/5 506/1/5
f 511/2/5 509/2/5 508/2/5
f 512/2/5 509/2/5 511/2/5
f 516/1/5 511/1/5 510/1/5
f 517/2/5 513/2/5 512/2/5
f 517/1/5 511/1/5 516/1/5
f 517/2/5 512/2/5 511/2/5
f 518/2/5 513/2/5 517/2/5
f 519/1/5 515/1/5 514/1/5
f 520/1/5 515/1/5 519/1/5
f 523/1/5 522/1/5 521/1/5
f 524/1/5 522/1/5 523/1/5
f 529/2/5 526/2/5 525/2/5
f 530/2/5 526/2/5 529/2/5
f 531/2/5 528/2/5 527/2/5
f 532/2/5 528/2/5 531/2/5
f 533/2/5 528/2/5 532/2/5
f 538/2/5 535/2/5 534/2/5
f 539/1/5 536/1/5 535/1/5
f 539/2/5 535/2/5 538/2/5
f 540/1/5 536/1/5 539/1/5
f 542/1/5 538/1/5 537/1/5
f 543/1/5 538/1/5 542/1/5
f 545/1/5 541/1/5 540/1/5
f 546/1/5 541/1/5 545/1/5
f 547/1/5 544/1/5 543/1/5
f 548/1/5 544/1/5 547/1/5
f 552/1/5 550/1/5 549/1/5
f 553/2/5 551/2/5 550/2/5
f 553/1/5 550/1/5 552/1/5
f 554/2/5 551/2/5 553/2/5
f 557/1/5 556/1/5 555/1/5
f 558/1/5 556/1/5 557/1/5
f 559/1/5 556/1/5 558/1/5
f 563/1/5 561/1/5 560/1/5
f 563/1/5 562/1/5 561/1/5
f 564/1/5 562/1/5 563/1/5
f 565/2/6 566/2/6 567/2/6
f 567/2/6 566/2/6 568/2/6
f 569/2/6 570/2/6 571/2/6
f 571/2/6 570/2/6 572/2/6
f 573/2/6 574/2/6 575/2/6
f 575/2/6 574/2/6 576/2/6
f 577/2/6 578/2/6 581/2/6
f 581/2/6 578/2/6 582/2/6
f 579/2/6 580/2/6 583/2/6
f 583/2/6 580/2/6 584/2/6
f 585/1/6 586/1/6 589/1/6
f 589/1/6 586/1/6 590/1/6
f 587/1/6 588/1/6 591/1/6
f 591/1/6 588/1/6 592/1/6
f 593/2/6 594/2/6 595/2/6
f 595/2/6 594/2/6 596/2/6
f 597/2/6 598/2/6 599/2/6
f 599/2/6 598/2/6 600/2/6
f 601/1/6 602/1/6 605/1/6
f 605/1/6 602/1/6 606/1/6
f 603/1/6 604/1/6 607/1/6
f 606/1/6 607/1/6 608/1/6
f 607/1/6 604/1/6 608/1/6
f 608/1/6 604/1/6 609/1/6
f 606/1/6 608/1/6 610/1/6
f 610/1/6 608/1/6 611/1/6
f 612/1/6 613/1/6 614/1/6
f 614/1/6 613/1/6 615/1/6
f 616/1/6 617/1/6 619/1/6
f 617/2/6 618/2/6 620/2/6
f 619/1/6 617/1/6 620/1/6
f 620/2/6 618/2/6 621/2/6
f 622/2/6 623/2/6 624/2/6
f 624/2/6 623/2/6 625/2/6
f 626/2/6 627/2/6 630/2/6
f 630/2/6 627/2/6 631/2/6
f 628/1/6 629/1/6 632/1/6
f 632/1/6 629/1/6 633/1/6
f 628/1/6 632/1/6 634/1/6
f 634/1/6 632/1/6 635/1/6
f 636/1/6 637/1/6 638/1/6
f 638/1/6 637/1/6 639/1/6
f 640/2/6 641/2/6 642/2/6
f 642/2/6 641/2/6 643/2/6
f 643/2/6 641/2/6 644/2/6
f 644/2/6 641/2/6 645/2/6
f 643/2/6 644/2/6 647/2/6
f 647/2/6 644/2/6 648/2/6
f 648/2/6 644/2/6 649/2/6
f 646/1/6 647/1/6 650/1/6
f 647/2/6 648/2/6 651/2/6
f 650/1/6 647/1/6 651/1/6
f 651/2/6 648/2/6 652/2/6
f 653/1/6 654/1/6 658/1/6
f 658/1/6 654/1/6 659/1/6
f 655/1/6 656/1/6 660/1/6
f 656/1/6 657/1/6 660/1/6
f 660/1/6 657/1/6 661/1/6
f 659/1/6 660/1/6 662/1/6
f 662/1/6 660/1/6 663/1/6
f 664/1/6 665/1/6 667/1/6
f 667/1/6 665/1/6 668/1/6
f 666/1/6 667/1/6 668/1/6
f 668/1/6 665/1/6 669/1/6
f 666/1/6 668/1/6 670/1/6
f 670/1/6 668/1/6 671/1/6
f 672/1/6 673/1/6 674/1/6
f 674/1/6 673/1/6 675/1/6
f 676/1/6 677/1/6 678/1/6
f 678/1/6 677/1/6 679/1/6
f 680/1/6 681/1/6 683/1/6
f 683/1/6 681/1/6 684/1/6
f 682/1/6 683/1/6 686/1/6
f 686/1/6 683/1/6 687/1/6
f 684/1/6 685/1/6 688/1/6
f 688/1/6 685/1/6 689/1/6
f 687/1/6 688/1/6 690/1/6
f 690/1/6 688/1/6 691/1/6
f 692/1/6 693/1/6 694/1/6
f 694/1/6 693/1/6 695/1/6
