# MagicaVoxel @ Ephtracy

# material
mtllib alien-1.mtl
usemtl palette

# normals
vn -1 0 0
vn 1 0 0
vn 0 0 1
vn 0 0 -1
vn 0 -1 0
vn 0 1 0

# texcoords
vt 0.220703 0.5
vt 0.607422 0.5
vt 0.654297 0.5
vt 0.794922 0.5
vt 0.958984 0.5

# verts
v -6.5 0 6
v -6.5 0 5
v -6.5 0 4
v -6.5 0 -1
v -6.5 0 -3
v -6.5 1 6
v -6.5 1 5
v -6.5 1 4
v -6.5 1 -1
v -6.5 1 -3
v -5.5 1 6
v -5.5 1 5
v -5.5 1 4
v -5.5 1 3
v -5.5 1 -0
v -5.5 1 -1
v -5.5 1 -3
v -5.5 2 6
v -5.5 2 5
v -5.5 2 1
v -5.5 2 -0
v -5.5 2 -1
v -5.5 3 -1
v -5.5 3 -3
v -5.5 4 6
v -5.5 4 5
v -5.5 4 4
v -5.5 4 3
v -5.5 4 1
v -5.5 4 -1
v -5.5 4 -3
v -5.5 5 6
v -5.5 5 5
v -5.5 5 4
v -5.5 5 1
v -5.5 5 -3
v -4.5 5 6
v -4.5 5 5
v -4.5 5 4
v -4.5 5 1
v -4.5 5 -0
v -4.5 5 -1
v -4.5 5 -3
v -4.5 6 6
v -4.5 6 5
v -4.5 6 4
v -4.5 6 1
v -4.5 6 -0
v -4.5 6 -1
v -4.5 6 -3
v -3.5 6 6
v -3.5 6 5
v -3.5 6 4
v -3.5 6 2
v -3.5 6 1
v -3.5 6 -0
v -3.5 6 -1
v -3.5 6 -3
v -3.5 7 6
v -3.5 7 2
v -3.5 7 1
v -3.5 7 -0
v -3.5 7 -1
v -3.5 7 -3
v -2.5 0 -3
v -2.5 0 -5
v -2.5 2 -3
v -2.5 2 -5
v -2.5 5 7
v -2.5 5 6
v -2.5 7 6
v -2.5 7 4
v -2.5 7 3
v -2.5 7 2
v -2.5 7 1
v -2.5 7 -0
v -2.5 7 -1
v -2.5 8 4
v -2.5 8 3
v -2.5 8 2
v -2.5 8 1
v -2.5 8 -1
v -2.5 9 6
v -2.5 9 1
v -2.5 10 8
v -2.5 10 7
v -2.5 11 9
v -2.5 11 8
v -2.5 11 7
v -2.5 11 6
v -2.5 12 9
v -2.5 12 7
v -1.5 6 8
v -1.5 6 7
v -1.5 7 8
v -1.5 7 7
v -0.5 0 -5
v -0.5 0 -7
v -0.5 0 -9
v -0.5 1 -6
v -0.5 1 -7
v -0.5 2 -4
v -0.5 2 -5
v -0.5 2 -6
v -0.5 2 -7
v -0.5 2 -8
v -0.5 2 -9
v -0.5 3 -4
v -0.5 3 -7
v -0.5 3 -8
v 1.5 7 -0
v 1.5 7 -1
v 1.5 8 -0
v 1.5 8 -1
v 1.5 9 7
v 1.5 9 6
v 1.5 10 8
v 1.5 10 7
v 1.5 11 9
v 1.5 11 8
v 1.5 11 7
v 1.5 11 6
v 1.5 12 9
v 1.5 12 7
v -1.5 7 -0
v -1.5 7 -1
v -1.5 8 -0
v -1.5 8 -1
v -1.5 9 7
v -1.5 9 6
v -1.5 10 8
v -1.5 10 7
v -1.5 11 9
v -1.5 11 8
v -1.5 11 7
v -1.5 11 6
v -1.5 12 9
v -1.5 12 7
v 0.5 0 -5
v 0.5 0 -7
v 0.5 0 -9
v 0.5 1 -6
v 0.5 1 -7
v 0.5 2 -4
v 0.5 2 -5
v 0.5 2 -6
v 0.5 2 -7
v 0.5 2 -8
v 0.5 2 -9
v 0.5 3 -4
v 0.5 3 -7
v 0.5 3 -8
v 1.5 6 8
v 1.5 6 7
v 1.5 7 8
v 1.5 7 7
v 2.5 0 -3
v 2.5 0 -4
v 2.5 0 -5
v 2.5 1 -4
v 2.5 1 -5
v 2.5 2 -3
v 2.5 2 -5
v 2.5 5 7
v 2.5 5 6
v 2.5 7 6
v 2.5 7 4
v 2.5 7 3
v 2.5 7 -0
v 2.5 7 -1
v 2.5 8 6
v 2.5 8 4
v 2.5 8 3
v 2.5 8 1
v 2.5 8 -0
v 2.5 8 -1
v 2.5 9 6
v 2.5 9 1
v 2.5 10 8
v 2.5 10 7
v 2.5 11 9
v 2.5 11 8
v 2.5 11 7
v 2.5 11 6
v 2.5 12 9
v 2.5 12 7
v 3.5 6 6
v 3.5 6 4
v 3.5 6 3
v 3.5 6 -0
v 3.5 6 -1
v 3.5 6 -2
v 3.5 6 -3
v 3.5 7 6
v 3.5 7 4
v 3.5 7 3
v 3.5 7 -0
v 3.5 7 -3
v 4.5 5 6
v 4.5 5 4
v 4.5 5 3
v 4.5 5 1
v 4.5 5 -1
v 4.5 5 -2
v 4.5 5 -3
v 4.5 6 6
v 4.5 6 4
v 4.5 6 3
v 4.5 6 -1
v 4.5 6 -2
v 4.5 6 -3
v 5.5 1 6
v 5.5 1 4
v 5.5 1 3
v 5.5 1 1
v 5.5 1 -0
v 5.5 1 -1
v 5.5 1 -2
v 5.5 1 -3
v 5.5 2 6
v 5.5 2 5
v 5.5 2 -1
v 5.5 2 -3
v 5.5 3 4
v 5.5 3 3
v 5.5 3 1
v 5.5 3 -1
v 5.5 3 -3
v 5.5 4 6
v 5.5 4 5
v 5.5 5 6
v 5.5 5 4
v 5.5 5 3
v 5.5 5 1
v 5.5 5 -1
v 5.5 5 -3
v 6.5 0 6
v 6.5 0 1
v 6.5 0 -0
v 6.5 0 -2
v 6.5 0 -3
v 6.5 1 6
v 6.5 1 1
v 6.5 1 -0
v 6.5 1 -2
v 6.5 1 -3
v -2.5 11 9
v -2.5 12 9
v -1.5 11 9
v -1.5 12 9
v 1.5 11 9
v 1.5 12 9
v 2.5 11 9
v 2.5 12 9
v -2.5 10 8
v -2.5 11 8
v -1.5 6 8
v -1.5 7 8
v -1.5 10 8
v -1.5 11 8
v 1.5 6 8
v 1.5 7 8
v 1.5 10 8
v 1.5 11 8
v 2.5 10 8
v 2.5 11 8
v -2.5 5 7
v -2.5 10 7
v -1.5 6 7
v -1.5 7 7
v -1.5 8 7
v -1.5 9 7
v -1.5 10 7
v -0.5 7 7
v -0.5 8 7
v 0.5 7 7
v 0.5 8 7
v 1.5 6 7
v 1.5 7 7
v 1.5 8 7
v 1.5 9 7
v 1.5 10 7
v 2.5 5 7
v 2.5 10 7
v -6.5 0 6
v -6.5 1 6
v -5.5 0 6
v -5.5 1 6
v -5.5 2 6
v -5.5 4 6
v -5.5 5 6
v -4.5 0 6
v -4.5 1 6
v -4.5 2 6
v -4.5 4 6
v -4.5 5 6
v -4.5 6 6
v -3.5 1 6
v -3.5 3 6
v -3.5 6 6
v -3.5 7 6
v -2.5 3 6
v -2.5 4 6
v -2.5 5 6
v -2.5 7 6
v 2.5 3 6
v 2.5 4 6
v 2.5 5 6
v 2.5 7 6
v 3.5 1 6
v 3.5 3 6
v 3.5 6 6
v 3.5 7 6
v 4.5 0 6
v 4.5 1 6
v 4.5 2 6
v 4.5 3 6
v 4.5 4 6
v 4.5 5 6
v 4.5 6 6
v 5.5 1 6
v 5.5 2 6
v 5.5 4 6
v 5.5 5 6
v 6.5 0 6
v 6.5 1 6
v -0.5 2 -4
v -0.5 3 -4
v 0.5 2 -4
v 0.5 3 -4
v -2.5 11 7
v -2.5 12 7
v -1.5 11 7
v -1.5 12 7
v 1.5 11 7
v 1.5 12 7
v 2.5 11 7
v 2.5 12 7
v -2.5 9 6
v -2.5 11 6
v -1.5 9 6
v -1.5 11 6
v 1.5 9 6
v 1.5 11 6
v 2.5 9 6
v 2.5 11 6
v -2.5 8 1
v -2.5 9 1
v -1.5 8 1
v -0.5 8 1
v 1.5 8 1
v 2.5 8 1
v 2.5 9 1
v -1.5 7 -0
v -1.5 8 -0
v -0.5 7 -0
v -0.5 8 -0
v 1.5 7 -0
v 1.5 8 -0
v -2.5 7 -1
v -2.5 8 -1
v -1.5 7 -1
v -1.5 8 -1
v 1.5 7 -1
v 1.5 8 -1
v 2.5 7 -1
v 2.5 8 -1
v -6.5 0 -3
v -6.5 1 -3
v -5.5 1 -3
v -5.5 3 -3
v -5.5 4 -3
v -5.5 5 -3
v -4.5 0 -3
v -4.5 3 -3
v -4.5 5 -3
v -4.5 6 -3
v -3.5 6 -3
v -3.5 7 -3
v -2.5 0 -3
v -2.5 2 -3
v -2.5 4 -3
v -2.5 7 -3
v -1.5 2 -3
v -0.5 2 -3
v -0.5 6 -3
v 0.5 4 -3
v 0.5 6 -3
v 2.5 0 -3
v 2.5 2 -3
v 3.5 2 -3
v 3.5 4 -3
v 3.5 6 -3
v 3.5 7 -3
v 4.5 0 -3
v 4.5 2 -3
v 4.5 3 -3
v 4.5 5 -3
v 4.5 6 -3
v 5.5 1 -3
v 5.5 2 -3
v 5.5 3 -3
v 5.5 5 -3
v 6.5 0 -3
v 6.5 1 -3
v -2.5 0 -5
v -2.5 2 -5
v -1.5 0 -5
v -1.5 2 -5
v -0.5 0 -5
v -0.5 2 -5
v 0.5 0 -5
v 0.5 2 -5
v 1.5 0 -5
v 1.5 1 -5
v 2.5 0 -5
v 2.5 1 -5
v 2.5 2 -5
v -0.5 2 -8
v -0.5 3 -8
v 0.5 2 -8
v 0.5 3 -8
v -0.5 0 -9
v -0.5 2 -9
v 0.5 0 -9
v 0.5 2 -9
v -6.5 0 6
v -5.5 0 6
v -4.5 0 6
v 4.5 0 6
v 6.5 0 6
v -6.5 0 5
v -5.5 0 5
v -4.5 0 5
v 4.5 0 5
v -6.5 0 4
v -5.5 0 4
v 5.5 0 1
v 6.5 0 1
v 5.5 0 -0
v 6.5 0 -0
v -6.5 0 -1
v -4.5 0 -1
v 4.5 0 -2
v 6.5 0 -2
v -6.5 0 -3
v -4.5 0 -3
v -2.5 0 -3
v -1.5 0 -3
v 2.5 0 -3
v 4.5 0 -3
v 6.5 0 -3
v 1.5 0 -4
v 2.5 0 -4
v -2.5 0 -5
v -1.5 0 -5
v -0.5 0 -5
v 0.5 0 -5
v 1.5 0 -5
v 2.5 0 -5
v -0.5 0 -7
v 0.5 0 -7
v -0.5 0 -9
v 0.5 0 -9
v -2.5 5 7
v 2.5 5 7
v -2.5 5 6
v 2.5 5 6
v -1.5 6 8
v 1.5 6 8
v -1.5 6 7
v 1.5 6 7
v -2.5 10 8
v -1.5 10 8
v 1.5 10 8
v 2.5 10 8
v -2.5 10 7
v -1.5 10 7
v 1.5 10 7
v 2.5 10 7
v -2.5 11 9
v -1.5 11 9
v 1.5 11 9
v 2.5 11 9
v -2.5 11 8
v -1.5 11 8
v 1.5 11 8
v 2.5 11 8
v -6.5 1 6
v -5.5 1 6
v 5.5 1 6
v 6.5 1 6
v -6.5 1 5
v -5.5 1 5
v -6.5 1 4
v -5.5 1 4
v 5.5 1 4
v -5.5 1 3
v 5.5 1 3
v 5.5 1 1
v 6.5 1 1
v -5.5 1 -0
v 5.5 1 -0
v 6.5 1 -0
v -6.5 1 -1
v -5.5 1 -1
v 5.5 1 -1
v 5.5 1 -2
v 6.5 1 -2
v -6.5 1 -3
v -5.5 1 -3
v 5.5 1 -3
v 6.5 1 -3
v -2.5 2 -3
v -1.5 2 -3
v -0.5 2 -3
v 2.5 2 -3
v -0.5 2 -4
v 0.5 2 -4
v -2.5 2 -5
v -1.5 2 -5
v -0.5 2 -5
v 0.5 2 -5
v 2.5 2 -5
v -0.5 2 -8
v 0.5 2 -8
v -0.5 2 -9
v 0.5 2 -9
v -0.5 3 -4
v 0.5 3 -4
v -0.5 3 -7
v 0.5 3 -7
v -0.5 3 -8
v 0.5 3 -8
v -5.5 5 6
v -4.5 5 6
v 4.5 5 6
v 5.5 5 6
v -5.5 5 5
v -4.5 5 5
v -5.5 5 4
v -4.5 5 4
v 4.5 5 4
v 5.5 5 4
v 4.5 5 3
v 5.5 5 3
v -5.5 5 1
v -4.5 5 1
v 4.5 5 1
v 5.5 5 1
v -4.5 5 -0
v -4.5 5 -1
v 4.5 5 -1
v 5.5 5 -1
v 4.5 5 -2
v -5.5 5 -3
v -4.5 5 -3
v 4.5 5 -3
v 5.5 5 -3
v -4.5 6 6
v -3.5 6 6
v 3.5 6 6
v 4.5 6 6
v -4.5 6 5
v -3.5 6 5
v -4.5 6 4
v -3.5 6 4
v 3.5 6 4
v 4.5 6 4
v 3.5 6 3
v 4.5 6 3
v -3.5 6 2
v -4.5 6 1
v -3.5 6 1
v -4.5 6 -0
v -3.5 6 -0
v 3.5 6 -0
v -4.5 6 -1
v -3.5 6 -1
v 3.5 6 -1
v 4.5 6 -1
v 3.5 6 -2
v 4.5 6 -2
v -4.5 6 -3
v -3.5 6 -3
v 3.5 6 -3
v 4.5 6 -3
v -1.5 7 8
v 1.5 7 8
v -1.5 7 7
v -0.5 7 7
v 0.5 7 7
v 1.5 7 7
v -3.5 7 6
v -2.5 7 6
v 2.5 7 6
v 3.5 7 6
v -2.5 7 4
v 2.5 7 4
v 3.5 7 4
v -2.5 7 3
v 2.5 7 3
v 3.5 7 3
v -3.5 7 2
v -2.5 7 2
v -3.5 7 1
v -2.5 7 1
v -3.5 7 -0
v -2.5 7 -0
v -1.5 7 -0
v -0.5 7 -0
v 1.5 7 -0
v 2.5 7 -0
v 3.5 7 -0
v -3.5 7 -1
v -2.5 7 -1
v -1.5 7 -1
v 1.5 7 -1
v 2.5 7 -1
v -1.5 7 -2
v -0.5 7 -2
v -3.5 7 -3
v -2.5 7 -3
v 3.5 7 -3
v -2.5 8 1
v -1.5 8 1
v -0.5 8 1
v 1.5 8 1
v 2.5 8 1
v -1.5 8 -0
v -0.5 8 -0
v 1.5 8 -0
v 2.5 8 -0
v -2.5 8 -1
v -1.5 8 -1
v 1.5 8 -1
v 2.5 8 -1
v -1.5 9 7
v 1.5 9 7
v -2.5 9 6
v -1.5 9 6
v 1.5 9 6
v 2.5 9 6
v -2.5 9 1
v 2.5 9 1
v -2.5 11 7
v -1.5 11 7
v 1.5 11 7
v 2.5 11 7
v -2.5 11 6
v -1.5 11 6
v 1.5 11 6
v 2.5 11 6
v -2.5 12 9
v -1.5 12 9
v 1.5 12 9
v 2.5 12 9
v -2.5 12 7
v -1.5 12 7
v 1.5 12 7
v 2.5 12 7

# faces
f 6/3/1 2/3/1 1/3/1
f 7/2/1 3/2/1 2/2/1
f 7/3/1 2/3/1 6/3/1
f 8/4/1 4/4/1 3/4/1
f 8/2/1 3/2/1 7/2/1
f 9/2/1 5/2/1 4/2/1
f 9/4/1 4/4/1 8/4/1
f 10/2/1 5/2/1 9/2/1
f 18/4/1 12/4/1 11/4/1
f 18/4/1 13/4/1 12/4/1
f 18/4/1 14/4/1 13/4/1
f 19/4/1 14/4/1 18/4/1
f 20/2/1 15/2/1 14/2/1
f 21/4/1 16/4/1 15/4/1
f 21/2/1 15/2/1 20/2/1
f 22/2/1 17/2/1 16/2/1
f 22/4/1 16/4/1 21/4/1
f 23/3/1 21/3/1 20/3/1
f 23/2/1 17/2/1 22/2/1
f 23/3/1 22/3/1 21/3/1
f 24/2/1 17/2/1 23/2/1
f 25/3/1 19/3/1 18/3/1
f 26/4/1 14/4/1 19/4/1
f 26/3/1 19/3/1 25/3/1
f 27/4/1 14/4/1 26/4/1
f 28/2/1 20/2/1 14/2/1
f 28/4/1 14/4/1 27/4/1
f 29/3/1 23/3/1 20/3/1
f 29/2/1 20/2/1 28/2/1
f 30/4/1 24/4/1 23/4/1
f 30/3/1 23/3/1 29/3/1
f 31/4/1 24/4/1 30/4/1
f 32/4/1 26/4/1 25/4/1
f 33/2/1 27/2/1 26/2/1
f 33/4/1 26/4/1 32/4/1
f 34/4/1 28/4/1 27/4/1
f 34/2/1 27/2/1 33/2/1
f 34/4/1 29/4/1 28/4/1
f 35/3/1 31/3/1 30/3/1
f 35/4/1 29/4/1 34/4/1
f 35/3/1 30/3/1 29/3/1
f 36/3/1 31/3/1 35/3/1
f 44/4/1 38/4/1 37/4/1
f 45/2/1 39/2/1 38/2/1
f 45/4/1 38/4/1 44/4/1
f 46/4/1 40/4/1 39/4/1
f 46/2/1 39/2/1 45/2/1
f 47/2/1 41/2/1 40/2/1
f 47/4/1 40/4/1 46/4/1
f 48/4/1 42/4/1 41/4/1
f 48/2/1 41/2/1 47/2/1
f 49/3/1 43/3/1 42/3/1
f 49/4/1 42/4/1 48/4/1
f 50/3/1 43/3/1 49/3/1
f 59/4/1 52/4/1 51/4/1
f 59/4/1 53/4/1 52/4/1
f 59/4/1 54/4/1 53/4/1
f 60/3/1 55/3/1 54/3/1
f 60/4/1 54/4/1 59/4/1
f 61/2/1 56/2/1 55/2/1
f 61/3/1 55/3/1 60/3/1
f 62/4/1 57/4/1 56/4/1
f 62/2/1 56/2/1 61/2/1
f 63/3/1 58/3/1 57/3/1
f 63/4/1 57/4/1 62/4/1
f 64/3/1 58/3/1 63/3/1
f 67/3/1 66/3/1 65/3/1
f 68/3/1 66/3/1 67/3/1
f 71/4/1 70/4/1 69/4/1
f 78/4/1 72/4/1 71/4/1
f 78/2/1 73/2/1 72/2/1
f 79/4/1 74/4/1 73/4/1
f 79/2/1 73/2/1 78/2/1
f 80/3/1 75/3/1 74/3/1
f 80/4/1 74/4/1 79/4/1
f 81/4/1 77/4/1 76/4/1
f 81/3/1 75/3/1 80/3/1
f 81/4/1 76/4/1 75/4/1
f 82/4/1 77/4/1 81/4/1
f 83/4/1 71/4/1 69/4/1
f 83/4/1 80/4/1 79/4/1
f 83/4/1 81/4/1 80/4/1
f 83/4/1 78/4/1 71/4/1
f 83/4/1 79/4/1 78/4/1
f 84/4/1 81/4/1 83/4/1
f 86/4/1 83/4/1 69/4/1
f 88/4/1 86/4/1 85/4/1
f 89/4/1 83/4/1 86/4/1
f 89/4/1 86/4/1 88/4/1
f 90/4/1 83/4/1 89/4/1
f 91/4/1 88/4/1 87/4/1
f 91/4/1 89/4/1 88/4/1
f 92/4/1 89/4/1 91/4/1
f 95/1/1 94/1/1 93/1/1
f 96/1/1 94/1/1 95/1/1
f 100/4/1 98/4/1 97/4/1
f 101/2/1 99/2/1 98/2/1
f 101/4/1 98/4/1 100/4/1
f 103/4/1 100/4/1 97/4/1
f 104/2/1 101/2/1 100/2/1
f 104/4/1 100/4/1 103/4/1
f 105/2/1 99/2/1 101/2/1
f 105/2/1 101/2/1 104/2/1
f 106/2/1 99/2/1 105/2/1
f 107/2/1 99/2/1 106/2/1
f 108/3/1 104/3/1 103/3/1
f 108/3/1 103/3/1 102/3/1
f 108/3/1 105/3/1 104/3/1
f 109/4/1 106/4/1 105/4/1
f 109/3/1 105/3/1 108/3/1
f 110/4/1 106/4/1 109/4/1
f 113/4/1 112/4/1 111/4/1
f 114/4/1 112/4/1 113/4/1
f 118/4/1 116/4/1 115/4/1
f 120/4/1 118/4/1 117/4/1
f 121/4/1 116/4/1 118/4/1
f 121/4/1 118/4/1 120/4/1
f 122/4/1 116/4/1 121/4/1
f 123/4/1 120/4/1 119/4/1
f 123/4/1 121/4/1 120/4/1
f 124/4/1 121/4/1 123/4/1
f 125/4/2 126/4/2 127/4/2
f 127/4/2 126/4/2 128/4/2
f 129/4/2 130/4/2 132/4/2
f 131/4/2 132/4/2 134/4/2
f 132/4/2 130/4/2 135/4/2
f 134/4/2 132/4/2 135/4/2
f 135/4/2 130/4/2 136/4/2
f 133/4/2 134/4/2 137/4/2
f 134/4/2 135/4/2 137/4/2
f 137/4/2 135/4/2 138/4/2
f 139/4/2 140/4/2 142/4/2
f 140/2/2 141/2/2 143/2/2
f 142/4/2 140/4/2 143/4/2
f 139/4/2 142/4/2 145/4/2
f 142/2/2 143/2/2 146/2/2
f 145/4/2 142/4/2 146/4/2
f 143/2/2 141/2/2 147/2/2
f 146/2/2 143/2/2 147/2/2
f 147/2/2 141/2/2 148/2/2
f 148/2/2 141/2/2 149/2/2
f 145/3/2 146/3/2 150/3/2
f 144/3/2 145/3/2 150/3/2
f 146/3/2 147/3/2 150/3/2
f 147/4/2 148/4/2 151/4/2
f 150/3/2 147/3/2 151/3/2
f 151/4/2 148/4/2 152/4/2
f 153/1/2 154/1/2 155/1/2
f 155/1/2 154/1/2 156/1/2
f 157/4/2 158/4/2 160/4/2
f 158/2/2 159/2/2 160/2/2
f 160/2/2 159/2/2 161/2/2
f 157/4/2 160/4/2 162/4/2
f 160/4/2 161/4/2 162/4/2
f 162/4/2 161/4/2 163/4/2
f 164/4/2 165/4/2 166/4/2
f 164/4/2 166/4/2 171/4/2
f 166/3/2 167/3/2 171/3/2
f 167/4/2 168/4/2 172/4/2
f 171/3/2 167/3/2 172/3/2
f 168/3/2 169/3/2 173/3/2
f 172/4/2 168/4/2 173/4/2
f 173/3/2 169/3/2 174/3/2
f 169/4/2 170/4/2 175/4/2
f 174/3/2 169/3/2 175/3/2
f 175/4/2 170/4/2 176/4/2
f 173/4/2 174/4/2 177/4/2
f 171/4/2 172/4/2 177/4/2
f 172/4/2 173/4/2 177/4/2
f 164/4/2 171/4/2 177/4/2
f 177/4/2 174/4/2 178/4/2
f 164/4/2 177/4/2 180/4/2
f 179/4/2 180/4/2 182/4/2
f 180/4/2 177/4/2 183/4/2
f 182/4/2 180/4/2 183/4/2
f 183/4/2 177/4/2 184/4/2
f 181/4/2 182/4/2 185/4/2
f 182/4/2 183/4/2 185/4/2
f 185/4/2 183/4/2 186/4/2
f 187/3/2 188/3/2 194/3/2
f 188/2/2 189/2/2 195/2/2
f 194/3/2 188/3/2 195/3/2
f 189/3/2 190/3/2 196/3/2
f 195/2/2 189/2/2 196/2/2
f 192/4/2 193/4/2 197/4/2
f 196/3/2 190/3/2 197/3/2
f 190/4/2 191/4/2 197/4/2
f 191/4/2 192/4/2 197/4/2
f 197/4/2 193/4/2 198/4/2
f 199/3/2 200/3/2 206/3/2
f 200/2/2 201/2/2 207/2/2
f 206/3/2 200/3/2 207/3/2
f 201/4/2 202/4/2 208/4/2
f 207/2/2 201/2/2 208/2/2
f 202/4/2 203/4/2 208/4/2
f 203/2/2 204/2/2 209/2/2
f 208/4/2 203/4/2 209/4/2
f 204/4/2 205/4/2 210/4/2
f 209/2/2 204/2/2 210/2/2
f 210/4/2 205/4/2 211/4/2
f 212/4/2 213/4/2 220/4/2
f 220/4/2 213/4/2 221/4/2
f 218/2/2 219/2/2 222/2/2
f 214/3/2 215/3/2 222/3/2
f 215/3/2 216/3/2 222/3/2
f 216/3/2 217/3/2 222/3/2
f 217/2/2 218/2/2 222/2/2
f 222/2/2 219/2/2 223/2/2
f 221/4/2 213/4/2 224/4/2
f 213/2/2 214/2/2 224/2/2
f 214/3/2 222/3/2 225/3/2
f 224/2/2 214/2/2 225/2/2
f 225/3/2 222/3/2 226/3/2
f 222/4/2 223/4/2 227/4/2
f 226/3/2 222/3/2 227/3/2
f 227/4/2 223/4/2 228/4/2
f 220/3/2 221/3/2 229/3/2
f 221/4/2 224/4/2 230/4/2
f 229/3/2 221/3/2 230/3/2
f 229/4/2 230/4/2 231/4/2
f 224/3/2 225/3/2 232/3/2
f 231/4/2 230/4/2 232/4/2
f 230/4/2 224/4/2 232/4/2
f 225/4/2 226/4/2 233/4/2
f 232/3/2 225/3/2 233/3/2
f 226/2/2 227/2/2 234/2/2
f 233/4/2 226/4/2 234/4/2
f 227/3/2 228/3/2 235/3/2
f 234/2/2 227/2/2 235/2/2
f 235/3/2 228/3/2 236/3/2
f 237/4/2 238/4/2 242/4/2
f 238/2/2 239/2/2 243/2/2
f 242/4/2 238/4/2 243/4/2
f 239/4/2 240/4/2 244/4/2
f 243/2/2 239/2/2 244/2/2
f 240/2/2 241/2/2 245/2/2
f 244/4/2 240/4/2 245/4/2
f 245/2/2 241/2/2 246/2/2
f 249/4/3 248/4/3 247/4/3
f 250/4/3 248/4/3 249/4/3
f 253/4/3 252/4/3 251/4/3
f 254/4/3 252/4/3 253/4/3
f 259/4/3 256/4/3 255/4/3
f 260/4/3 256/4/3 259/4/3
f 261/1/3 258/1/3 257/1/3
f 262/1/3 258/1/3 261/1/3
f 265/4/3 264/4/3 263/4/3
f 266/4/3 264/4/3 265/4/3
f 269/4/3 268/4/3 267/4/3
f 270/4/3 268/4/3 269/4/3
f 271/4/3 268/4/3 270/4/3
f 272/4/3 268/4/3 271/4/3
f 273/4/3 268/4/3 272/4/3
f 274/5/3 271/5/3 270/5/3
f 275/4/3 272/4/3 271/4/3
f 275/5/3 271/5/3 274/5/3
f 276/4/3 275/4/3 274/4/3
f 277/4/3 272/4/3 275/4/3
f 277/4/3 275/4/3 276/4/3
f 278/4/3 269/4/3 267/4/3
f 279/5/3 277/5/3 276/5/3
f 280/4/3 272/4/3 277/4/3
f 280/5/3 277/5/3 279/5/3
f 281/4/3 272/4/3 280/4/3
f 283/4/3 279/4/3 278/4/3
f 283/4/3 282/4/3 281/4/3
f 283/4/3 281/4/3 280/4/3
f 283/4/3 280/4/3 279/4/3
f 283/4/3 278/4/3 267/4/3
f 284/4/3 282/4/3 283/4/3
f 287/3/3 286/3/3 285/3/3
f 288/3/3 286/3/3 287/3/3
f 292/4/3 288/4/3 287/4/3
f 292/4/3 289/4/3 288/4/3
f 293/4/3 289/4/3 292/4/3
f 294/3/3 290/3/3 289/3/3
f 294/4/3 289/4/3 293/4/3
f 295/4/3 291/4/3 290/4/3
f 295/3/3 290/3/3 294/3/3
f 296/4/3 291/4/3 295/4/3
f 298/4/3 294/4/3 293/4/3
f 298/4/3 297/4/3 296/4/3
f 298/4/3 296/4/3 295/4/3
f 298/4/3 295/4/3 294/4/3
f 298/2/3 293/2/3 292/2/3
f 299/4/3 297/4/3 298/4/3
f 300/4/3 297/4/3 299/4/3
f 302/2/3 299/2/3 298/2/3
f 302/4/3 301/4/3 300/4/3
f 302/4/3 300/4/3 299/4/3
f 303/4/3 301/4/3 302/4/3
f 304/4/3 301/4/3 303/4/3
f 305/4/3 301/4/3 304/4/3
f 306/2/3 302/2/3 298/2/3
f 306/2/3 303/2/3 302/2/3
f 307/4/3 304/4/3 303/4/3
f 307/2/3 303/2/3 306/2/3
f 308/4/3 304/4/3 307/4/3
f 310/2/3 298/2/3 292/2/3
f 310/2/3 306/2/3 298/2/3
f 311/3/3 309/3/3 308/3/3
f 311/2/3 306/2/3 310/2/3
f 311/3/3 308/3/3 307/3/3
f 311/3/3 307/3/3 306/3/3
f 312/3/3 309/3/3 311/3/3
f 313/3/3 309/3/3 312/3/3
f 314/2/3 310/2/3 292/2/3
f 315/4/3 311/4/3 310/4/3
f 315/2/3 310/2/3 314/2/3
f 316/4/3 311/4/3 315/4/3
f 317/3/3 312/3/3 311/3/3
f 317/4/3 311/4/3 316/4/3
f 318/3/3 312/3/3 317/3/3
f 319/3/3 312/3/3 318/3/3
f 320/3/3 312/3/3 319/3/3
f 321/4/3 316/4/3 315/4/3
f 321/4/3 315/4/3 314/4/3
f 322/3/3 317/3/3 316/3/3
f 322/4/3 316/4/3 321/4/3
f 322/3/3 318/3/3 317/3/3
f 323/4/3 319/4/3 318/4/3
f 323/3/3 318/3/3 322/3/3
f 324/4/3 319/4/3 323/4/3
f 325/4/3 321/4/3 314/4/3
f 326/4/3 321/4/3 325/4/3
f 329/3/3 328/3/3 327/3/3
f 330/3/3 328/3/3 329/3/3
f 331/4/4 332/4/4 333/4/4
f 333/4/4 332/4/4 334/4/4
f 335/4/4 336/4/4 337/4/4
f 337/4/4 336/4/4 338/4/4
f 339/4/4 340/4/4 341/4/4
f 341/4/4 340/4/4 342/4/4
f 343/4/4 344/4/4 345/4/4
f 345/4/4 344/4/4 346/4/4
f 347/4/4 348/4/4 349/4/4
f 349/4/4 348/4/4 350/4/4
f 350/4/4 348/4/4 351/4/4
f 351/4/4 348/4/4 352/4/4
f 352/4/4 348/4/4 353/4/4
f 354/3/4 355/3/4 356/3/4
f 356/3/4 355/3/4 357/3/4
f 356/4/4 357/4/4 358/4/4
f 358/4/4 357/4/4 359/4/4
f 360/4/4 361/4/4 362/4/4
f 362/4/4 361/4/4 363/4/4
f 364/4/4 365/4/4 366/4/4
f 366/4/4 365/4/4 367/4/4
f 368/2/4 369/2/4 370/2/4
f 368/2/4 370/2/4 374/2/4
f 370/2/4 371/2/4 374/2/4
f 371/4/4 372/4/4 375/4/4
f 374/2/4 371/2/4 375/2/4
f 372/3/4 373/3/4 376/3/4
f 376/3/4 377/3/4 378/3/4
f 374/4/4 375/4/4 380/4/4
f 380/4/4 375/4/4 381/4/4
f 375/4/4 372/4/4 382/4/4
f 381/4/4 375/4/4 382/4/4
f 378/3/4 379/3/4 382/3/4
f 372/3/4 376/3/4 382/3/4
f 376/3/4 378/3/4 382/3/4
f 382/3/4 379/3/4 383/3/4
f 381/4/4 382/4/4 384/4/4
f 382/4/4 383/4/4 384/4/4
f 384/4/4 383/4/4 385/4/4
f 385/4/4 383/4/4 386/4/4
f 385/3/4 386/3/4 387/3/4
f 386/4/4 383/4/4 388/4/4
f 387/3/4 386/3/4 388/3/4
f 385/3/4 387/3/4 390/3/4
f 390/3/4 387/3/4 391/3/4
f 389/4/4 390/4/4 391/4/4
f 387/4/4 388/4/4 392/4/4
f 391/3/4 387/3/4 392/3/4
f 388/4/4 383/4/4 393/4/4
f 392/4/4 388/4/4 393/4/4
f 393/4/4 383/4/4 394/4/4
f 391/4/4 392/4/4 395/4/4
f 389/4/4 391/4/4 395/4/4
f 392/4/4 393/4/4 395/4/4
f 395/4/4 393/4/4 396/4/4
f 396/4/4 393/4/4 397/4/4
f 397/4/4 393/4/4 398/4/4
f 398/4/4 393/4/4 399/4/4
f 395/2/4 396/2/4 400/2/4
f 396/4/4 397/4/4 401/4/4
f 400/2/4 396/2/4 401/2/4
f 397/3/4 398/3/4 402/3/4
f 401/4/4 397/4/4 402/4/4
f 402/3/4 398/3/4 403/3/4
f 395/2/4 400/2/4 404/2/4
f 404/2/4 400/2/4 405/2/4
f 406/3/4 407/3/4 408/3/4
f 408/3/4 407/3/4 409/3/4
f 408/4/4 409/4/4 410/4/4
f 410/4/4 409/4/4 411/4/4
f 412/4/4 413/4/4 414/4/4
f 414/4/4 413/4/4 415/4/4
f 414/2/4 415/2/4 416/2/4
f 415/4/4 413/4/4 417/4/4
f 416/2/4 415/2/4 417/2/4
f 417/4/4 413/4/4 418/4/4
f 419/4/4 420/4/4 421/4/4
f 421/4/4 420/4/4 422/4/4
f 423/2/4 424/2/4 425/2/4
f 425/2/4 424/2/4 426/2/4
f 432/3/5 428/3/5 427/3/5
f 433/4/5 429/4/5 428/4/5
f 433/3/5 428/3/5 432/3/5
f 434/2/5 430/2/5 429/2/5
f 434/4/5 429/4/5 433/4/5
f 435/4/5 431/4/5 430/4/5
f 435/2/5 430/2/5 434/2/5
f 436/2/5 433/2/5 432/2/5
f 437/4/5 434/4/5 433/4/5
f 437/2/5 433/2/5 436/2/5
f 437/4/5 435/4/5 434/4/5
f 438/4/5 431/4/5 435/4/5
f 438/4/5 435/4/5 437/4/5
f 438/4/5 437/4/5 436/4/5
f 439/4/5 431/4/5 438/4/5
f 440/4/5 438/4/5 436/4/5
f 440/2/5 439/2/5 438/2/5
f 441/2/5 439/2/5 440/2/5
f 442/4/5 440/4/5 436/4/5
f 442/4/5 441/4/5 440/4/5
f 443/4/5 441/4/5 442/4/5
f 444/4/5 441/4/5 443/4/5
f 445/4/5 441/4/5 444/4/5
f 446/2/5 443/2/5 442/2/5
f 447/4/5 444/4/5 443/4/5
f 447/2/5 443/2/5 446/2/5
f 448/4/5 444/4/5 447/4/5
f 449/4/5 444/4/5 448/4/5
f 450/4/5 444/4/5 449/4/5
f 451/2/5 445/2/5 444/2/5
f 451/4/5 444/4/5 450/4/5
f 452/2/5 445/2/5 451/2/5
f 453/4/5 450/4/5 449/4/5
f 454/4/5 450/4/5 453/4/5
f 455/3/5 449/3/5 448/3/5
f 456/4/5 453/4/5 449/4/5
f 456/3/5 449/3/5 455/3/5
f 457/4/5 453/4/5 456/4/5
f 458/4/5 453/4/5 457/4/5
f 459/2/5 454/2/5 453/2/5
f 459/4/5 453/4/5 458/4/5
f 460/2/5 454/2/5 459/2/5
f 461/4/5 458/4/5 457/4/5
f 462/4/5 458/4/5 461/4/5
f 463/2/5 462/2/5 461/2/5
f 464/2/5 462/2/5 463/2/5
f 467/4/5 466/4/5 465/4/5
f 468/4/5 466/4/5 467/4/5
f 471/1/5 470/1/5 469/1/5
f 472/1/5 470/1/5 471/1/5
f 477/4/5 474/4/5 473/4/5
f 478/4/5 474/4/5 477/4/5
f 479/4/5 476/4/5 475/4/5
f 480/4/5 476/4/5 479/4/5
f 485/4/5 482/4/5 481/4/5
f 486/4/5 482/4/5 485/4/5
f 487/4/5 484/4/5 483/4/5
f 488/4/5 484/4/5 487/4/5
f 489/3/6 490/3/6 493/3/6
f 493/3/6 490/3/6 494/3/6
f 493/2/6 494/2/6 495/2/6
f 495/2/6 494/2/6 496/2/6
f 491/4/6 492/4/6 497/4/6
f 495/4/6 496/4/6 498/4/6
f 497/4/6 492/4/6 499/4/6
f 499/4/6 492/4/6 500/4/6
f 500/4/6 492/4/6 501/4/6
f 495/4/6 498/4/6 502/4/6
f 500/2/6 501/2/6 503/2/6
f 503/2/6 501/2/6 504/2/6
f 495/4/6 502/4/6 505/4/6
f 505/4/6 502/4/6 506/4/6
f 503/4/6 504/4/6 507/4/6
f 507/4/6 504/4/6 508/4/6
f 508/4/6 504/4/6 509/4/6
f 505/2/6 506/2/6 510/2/6
f 510/2/6 506/2/6 511/2/6
f 508/2/6 509/2/6 512/2/6
f 512/2/6 509/2/6 513/2/6
f 515/4/6 516/4/6 518/4/6
f 516/4/6 517/4/6 518/4/6
f 518/4/6 517/4/6 519/4/6
f 514/3/6 515/3/6 520/3/6
f 515/4/6 518/4/6 521/4/6
f 520/3/6 515/3/6 521/3/6
f 521/4/6 518/4/6 522/4/6
f 519/4/6 517/4/6 523/4/6
f 523/4/6 517/4/6 524/4/6
f 525/2/6 526/2/6 527/2/6
f 527/2/6 526/2/6 528/2/6
f 529/3/6 530/3/6 531/3/6
f 531/3/6 530/3/6 532/3/6
f 531/4/6 532/4/6 533/4/6
f 533/4/6 532/4/6 534/4/6
f 535/4/6 536/4/6 539/4/6
f 539/4/6 536/4/6 540/4/6
f 539/2/6 540/2/6 541/2/6
f 541/2/6 540/2/6 542/2/6
f 537/4/6 538/4/6 543/4/6
f 543/4/6 538/4/6 544/4/6
f 543/3/6 544/3/6 545/3/6
f 545/3/6 544/3/6 546/3/6
f 541/4/6 542/4/6 547/4/6
f 547/4/6 542/4/6 548/4/6
f 545/4/6 546/4/6 549/4/6
f 549/4/6 546/4/6 550/4/6
f 547/3/6 548/3/6 551/3/6
f 547/3/6 551/3/6 552/3/6
f 549/2/6 550/2/6 553/2/6
f 553/2/6 550/2/6 554/2/6
f 553/3/6 554/3/6 555/3/6
f 547/3/6 552/3/6 556/3/6
f 556/3/6 552/3/6 557/3/6
f 555/3/6 554/3/6 558/3/6
f 558/3/6 554/3/6 559/3/6
f 560/4/6 561/4/6 564/4/6
f 564/4/6 561/4/6 565/4/6
f 564/2/6 565/2/6 566/2/6
f 566/2/6 565/2/6 567/2/6
f 562/3/6 563/3/6 568/3/6
f 568/3/6 563/3/6 569/3/6
f 568/2/6 569/2/6 570/2/6
f 570/2/6 569/2/6 571/2/6
f 566/4/6 567/4/6 572/4/6
f 566/4/6 572/4/6 573/4/6
f 573/4/6 572/4/6 574/4/6
f 573/2/6 574/2/6 575/2/6
f 575/2/6 574/2/6 576/2/6
f 570/4/6 571/4/6 577/4/6
f 575/4/6 576/4/6 578/4/6
f 578/4/6 576/4/6 579/4/6
f 577/4/6 571/4/6 580/4/6
f 580/4/6 571/4/6 581/4/6
f 580/2/6 581/2/6 582/2/6
f 582/2/6 581/2/6 583/2/6
f 578/3/6 579/3/6 584/3/6
f 584/3/6 579/3/6 585/3/6
f 582/4/6 583/4/6 586/4/6
f 586/4/6 583/4/6 587/4/6
f 588/1/6 589/1/6 590/1/6
f 590/1/6 589/1/6 591/1/6
f 591/1/6 589/1/6 592/1/6
f 592/1/6 589/1/6 593/1/6
f 594/4/6 595/4/6 598/4/6
f 596/3/6 597/3/6 599/3/6
f 599/3/6 597/3/6 600/3/6
f 594/4/6 598/4/6 601/4/6
f 599/2/6 600/2/6 602/2/6
f 602/2/6 600/2/6 603/2/6
f 594/4/6 601/4/6 604/4/6
f 604/4/6 601/4/6 605/4/6
f 604/3/6 605/3/6 606/3/6
f 606/3/6 605/3/6 607/3/6
f 606/2/6 607/2/6 608/2/6
f 608/2/6 607/2/6 609/2/6
f 602/3/6 603/3/6 613/3/6
f 613/3/6 603/3/6 614/3/6
f 608/4/6 609/4/6 615/4/6
f 615/4/6 609/4/6 616/4/6
f 610/3/6 611/3/6 617/3/6
f 611/4/6 612/4/6 618/4/6
f 613/4/6 614/4/6 619/4/6
f 616/4/6 617/4/6 620/4/6
f 617/3/6 611/3/6 620/3/6
f 618/4/6 619/4/6 621/4/6
f 620/3/6 611/3/6 621/3/6
f 611/4/6 618/4/6 621/4/6
f 615/3/6 616/3/6 622/3/6
f 616/4/6 620/4/6 623/4/6
f 622/3/6 616/3/6 623/3/6
f 620/4/6 621/4/6 623/4/6
f 621/4/6 619/4/6 624/4/6
f 623/4/6 621/4/6 624/4/6
f 619/4/6 614/4/6 624/4/6
f 625/4/6 626/4/6 630/4/6
f 626/3/6 627/3/6 630/3/6
f 627/4/6 628/4/6 631/4/6
f 630/3/6 627/3/6 631/3/6
f 628/3/6 629/3/6 632/3/6
f 631/4/6 628/4/6 632/4/6
f 632/3/6 629/3/6 633/3/6
f 625/4/6 630/4/6 634/4/6
f 634/4/6 630/4/6 635/4/6
f 632/4/6 633/4/6 636/4/6
f 636/4/6 633/4/6 637/4/6
f 638/4/6 639/4/6 641/4/6
f 641/4/6 639/4/6 642/4/6
f 640/4/6 641/4/6 644/4/6
f 642/4/6 643/4/6 644/4/6
f 641/4/6 642/4/6 644/4/6
f 644/4/6 643/4/6 645/4/6
f 646/4/6 647/4/6 650/4/6
f 650/4/6 647/4/6 651/4/6
f 648/4/6 649/4/6 652/4/6
f 652/4/6 649/4/6 653/4/6
f 654/4/6 655/4/6 658/4/6
f 658/4/6 655/4/6 659/4/6
f 656/4/6 657/4/6 660/4/6
f 660/4/6 657/4/6 661/4/6
