# MagicaVoxel @ Ephtracy

# material
mtllib alien-2.mtl
usemtl palette

# normals
vn -1 0 0
vn 1 0 0
vn 0 0 1
vn 0 0 -1
vn 0 -1 0
vn 0 1 0

# texcoords
vt 0.373047 0.5
vt 0.533203 0.5
vt 0.916016 0.5
vt 0.958984 0.5

# verts
v -3 0 1.5
v -3 0 -8.5
v -3 1 2.5
v -3 1 1.5
v -3 2 -5.5
v -3 2 -7.5
v -3 2 -8.5
v -3 3 3.5
v -3 3 2.5
v -3 3 -2.5
v -3 3 -5.5
v -3 3 -7.5
v -3 4 6.5
v -3 4 3.5
v -3 4 -0.5
v -3 4 -2.5
v -3 4 -5.5
v -3 5 3.5
v -3 5 -0.5
v -3 5 -2.5
v -3 6 2.5
v -3 6 -0.5
v -3 7 6.5
v -3 7 3.5
v -3 7 2.5
v -3 8 6.5
v -3 8 3.5
v -2 0 3.5
v -2 0 1.5
v -2 0 -8.5
v -2 0 -9.5
v -2 1 4.5
v -2 1 3.5
v -2 1 2.5
v -2 1 1.5
v -2 1 -8.5
v -2 1 -9.5
v -2 3 6.5
v -2 3 4.5
v -2 3 3.5
v -2 3 2.5
v -2 3 -5.5
v -2 3 -7.5
v -2 4 6.5
v -2 4 3.5
v -2 4 -2.5
v -2 4 -5.5
v -2 5 -0.5
v -2 5 -2.5
v -2 5 -6.5
v -2 5 -7.5
v -2 6 7.5
v -2 6 6.5
v -2 6 2.5
v -2 6 -0.5
v -2 6 -6.5
v -2 7 9.5
v -2 7 7.5
v -2 7 6.5
v -2 7 3.5
v -2 7 2.5
v -2 7 1.5
v -2 7 -0.5
v -2 8 9.5
v -2 8 7.5
v -2 8 6.5
v -2 8 3.5
v -2 8 1.5
v -2 9 9.5
v -2 9 8.5
v -2 9 7.5
v -2 10 8.5
v -2 10 7.5
v -2 10 6.5
v -2 10 3.5
v -2 11 8.5
v -2 11 7.5
v -2 12 8.5
v -2 12 6.5
v -1 2 5.5
v -1 2 4.5
v -1 3 5.5
v -1 3 4.5
v -1 4 7.5
v -1 4 6.5
v -1 6 8.5
v -1 6 7.5
v -1 6 6.5
v -1 6 -0.5
v -1 6 -2.5
v -1 7 8.5
v -1 7 7.5
v -1 7 1.5
v -1 7 0.5
v -1 7 -0.5
v -1 7 -2.5
v -1 8 3.5
v -1 8 2.5
v -1 8 1.5
v -1 8 0.5
v -1 9 3.5
v -1 9 2.5
v 1 9 8.5
v 1 9 7.5
v 1 10 8.5
v 1 10 7.5
v 1 10 6.5
v 1 11 8.5
v 1 11 7.5
v 1 12 8.5
v 1 12 6.5
v -1 9 8.5
v -1 9 7.5
v -1 10 8.5
v -1 10 7.5
v -1 10 6.5
v -1 11 8.5
v -1 11 7.5
v -1 12 8.5
v -1 12 6.5
v 1 2 5.5
v 1 2 4.5
v 1 3 5.5
v 1 3 4.5
v 1 4 7.5
v 1 4 6.5
v 1 6 8.5
v 1 6 7.5
v 1 6 6.5
v 1 6 -0.5
v 1 6 -2.5
v 1 7 8.5
v 1 7 7.5
v 1 7 1.5
v 1 7 0.5
v 1 7 -0.5
v 1 7 -2.5
v 1 8 3.5
v 1 8 2.5
v 1 8 1.5
v 1 8 0.5
v 1 9 3.5
v 1 9 2.5
v 2 0 3.5
v 2 0 1.5
v 2 0 -8.5
v 2 0 -9.5
v 2 1 4.5
v 2 1 3.5
v 2 1 2.5
v 2 1 1.5
v 2 1 -8.5
v 2 1 -9.5
v 2 2 3.5
v 2 2 2.5
v 2 3 6.5
v 2 3 4.5
v 2 3 3.5
v 2 3 -4.5
v 2 3 -7.5
v 2 4 6.5
v 2 4 4.5
v 2 5 -3.5
v 2 5 -4.5
v 2 5 -6.5
v 2 5 -7.5
v 2 6 7.5
v 2 6 6.5
v 2 6 2.5
v 2 6 -0.5
v 2 6 -3.5
v 2 6 -6.5
v 2 7 9.5
v 2 7 7.5
v 2 7 6.5
v 2 7 3.5
v 2 7 2.5
v 2 7 1.5
v 2 7 -0.5
v 2 8 9.5
v 2 8 7.5
v 2 8 6.5
v 2 8 3.5
v 2 8 1.5
v 2 9 9.5
v 2 9 8.5
v 2 9 7.5
v 2 10 8.5
v 2 10 7.5
v 2 10 6.5
v 2 10 3.5
v 2 11 8.5
v 2 11 7.5
v 2 12 8.5
v 2 12 6.5
v 3 0 1.5
v 3 0 -8.5
v 3 1 2.5
v 3 1 1.5
v 3 2 3.5
v 3 2 2.5
v 3 2 -4.5
v 3 2 -7.5
v 3 2 -8.5
v 3 3 4.5
v 3 3 3.5
v 3 3 -3.5
v 3 3 -4.5
v 3 3 -7.5
v 3 4 6.5
v 3 4 4.5
v 3 5 2.5
v 3 5 -3.5
v 3 5 -4.5
v 3 6 3.5
v 3 6 2.5
v 3 6 -3.5
v 3 7 6.5
v 3 7 3.5
v 3 7 2.5
v 3 8 6.5
v 3 8 3.5
v -2 7 9.5
v -2 8 9.5
v -2 9 9.5
v 2 7 9.5
v 2 8 9.5
v 2 9 9.5
v -2 9 8.5
v -2 10 8.5
v -2 11 8.5
v -2 12 8.5
v -1 6 8.5
v -1 7 8.5
v -1 9 8.5
v -1 10 8.5
v -1 11 8.5
v -1 12 8.5
v 1 6 8.5
v 1 7 8.5
v 1 9 8.5
v 1 10 8.5
v 1 11 8.5
v 1 12 8.5
v 2 9 8.5
v 2 10 8.5
v 2 11 8.5
v 2 12 8.5
v -2 6 7.5
v -2 7 7.5
v -1 4 7.5
v -1 6 7.5
v -1 7 7.5
v -1 9 7.5
v -1 10 7.5
v 1 4 7.5
v 1 6 7.5
v 1 7 7.5
v 1 9 7.5
v 1 10 7.5
v 2 6 7.5
v 2 7 7.5
v -3 4 6.5
v -3 7 6.5
v -3 8 6.5
v -2 3 6.5
v -2 4 6.5
v -2 6 6.5
v -2 7 6.5
v -2 8 6.5
v -1 3 6.5
v -1 4 6.5
v -1 6 6.5
v 1 3 6.5
v 1 4 6.5
v 1 6 6.5
v 2 3 6.5
v 2 4 6.5
v 2 6 6.5
v 2 7 6.5
v 2 8 6.5
v 3 4 6.5
v 3 7 6.5
v 3 8 6.5
v -1 2 5.5
v -1 3 5.5
v 1 2 5.5
v 1 3 5.5
v -2 1 4.5
v -2 3 4.5
v -1 1 4.5
v -1 2 4.5
v -1 3 4.5
v 1 1 4.5
v 1 2 4.5
v 1 3 4.5
v 2 1 4.5
v 2 3 4.5
v 2 4 4.5
v 3 3 4.5
v 3 4 4.5
v -3 3 3.5
v -3 4 3.5
v -2 0 3.5
v -2 1 3.5
v -2 3 3.5
v -2 4 3.5
v -1 0 3.5
v -1 1 3.5
v 1 0 3.5
v 1 1 3.5
v 2 0 3.5
v 2 1 3.5
v 2 2 3.5
v 2 3 3.5
v 3 2 3.5
v 3 3 3.5
v -3 1 2.5
v -3 3 2.5
v -2 1 2.5
v -2 3 2.5
v 2 1 2.5
v 2 2 2.5
v 3 1 2.5
v 3 2 2.5
v -3 0 1.5
v -3 1 1.5
v -2 0 1.5
v -2 1 1.5
v 2 0 1.5
v 2 1 1.5
v 3 0 1.5
v 3 1 1.5
v -2 10 6.5
v -2 12 6.5
v -1 10 6.5
v -1 12 6.5
v 1 10 6.5
v 1 12 6.5
v 2 10 6.5
v 2 12 6.5
v -3 7 3.5
v -3 8 3.5
v -2 7 3.5
v -2 8 3.5
v -2 10 3.5
v -1 8 3.5
v -1 9 3.5
v -1 10 3.5
v 1 8 3.5
v 1 9 3.5
v 1 10 3.5
v 2 7 3.5
v 2 8 3.5
v 2 10 3.5
v 3 7 3.5
v 3 8 3.5
v -3 6 2.5
v -3 7 2.5
v -2 6 2.5
v -2 7 2.5
v -1 8 2.5
v -1 9 2.5
v 1 8 2.5
v 1 9 2.5
v 2 6 2.5
v 2 7 2.5
v 3 6 2.5
v 3 7 2.5
v -2 7 1.5
v -2 8 1.5
v -1 7 1.5
v -1 8 1.5
v 1 7 1.5
v 1 8 1.5
v 2 7 1.5
v 2 8 1.5
v -1 7 0.5
v -1 8 0.5
v 1 7 0.5
v 1 8 0.5
v -3 5 -0.5
v -3 6 -0.5
v -2 5 -0.5
v -2 6 -0.5
v -2 7 -0.5
v -1 6 -0.5
v -1 7 -0.5
v 1 6 -0.5
v 1 7 -0.5
v 2 6 -0.5
v 2 7 -0.5
v -3 4 -2.5
v -3 5 -2.5
v -2 4 -2.5
v -2 5 -2.5
v -1 6 -2.5
v -1 7 -2.5
v 1 6 -2.5
v 1 7 -2.5
v 2 5 -3.5
v 2 6 -3.5
v 3 5 -3.5
v 3 6 -3.5
v 2 3 -4.5
v 2 5 -4.5
v 3 3 -4.5
v 3 5 -4.5
v -3 3 -5.5
v -3 4 -5.5
v -2 3 -5.5
v -2 4 -5.5
v -2 5 -6.5
v -2 6 -6.5
v -1 5 -6.5
v -1 6 -6.5
v 1 5 -6.5
v 1 6 -6.5
v 2 5 -6.5
v 2 6 -6.5
v -3 2 -7.5
v -3 3 -7.5
v -2 2 -7.5
v -2 3 -7.5
v -2 5 -7.5
v -1 2 -7.5
v -1 5 -7.5
v 1 2 -7.5
v 1 5 -7.5
v 2 2 -7.5
v 2 3 -7.5
v 2 5 -7.5
v 3 2 -7.5
v 3 3 -7.5
v -3 0 -8.5
v -3 2 -8.5
v -2 0 -8.5
v -2 1 -8.5
v -1 1 -8.5
v -1 2 -8.5
v 1 1 -8.5
v 1 2 -8.5
v 2 0 -8.5
v 2 1 -8.5
v 3 0 -8.5
v 3 2 -8.5
v -2 0 -9.5
v -2 1 -9.5
v -1 0 -9.5
v -1 1 -9.5
v 1 0 -9.5
v 1 1 -9.5
v 2 0 -9.5
v 2 1 -9.5
v -2 0 3.5
v -1 0 3.5
v 1 0 3.5
v 2 0 3.5
v -3 0 1.5
v -2 0 1.5
v 2 0 1.5
v 3 0 1.5
v -3 0 -8.5
v -2 0 -8.5
v 2 0 -8.5
v 3 0 -8.5
v -2 0 -9.5
v -1 0 -9.5
v 1 0 -9.5
v 2 0 -9.5
v -2 1 4.5
v -1 1 4.5
v 1 1 4.5
v 2 1 4.5
v -2 1 3.5
v -1 1 3.5
v 1 1 3.5
v 2 1 3.5
v -3 1 2.5
v -2 1 2.5
v 2 1 2.5
v 3 1 2.5
v -3 1 1.5
v -2 1 1.5
v 2 1 1.5
v 3 1 1.5
v -1 2 5.5
v 1 2 5.5
v -1 2 4.5
v 1 2 4.5
v 2 2 3.5
v 3 2 3.5
v 2 2 2.5
v 3 2 2.5
v -2 3 6.5
v -1 3 6.5
v 1 3 6.5
v 2 3 6.5
v -1 3 5.5
v 1 3 5.5
v -2 3 4.5
v -1 3 4.5
v 1 3 4.5
v 2 3 4.5
v 3 3 4.5
v -3 3 3.5
v -2 3 3.5
v 2 3 3.5
v 3 3 3.5
v -3 3 2.5
v -2 3 2.5
v -1 4 7.5
v 1 4 7.5
v -3 4 6.5
v -2 4 6.5
v -1 4 6.5
v 1 4 6.5
v 2 4 6.5
v 3 4 6.5
v 2 4 4.5
v 3 4 4.5
v -3 4 3.5
v -2 4 3.5
v -1 6 8.5
v 1 6 8.5
v -2 6 7.5
v -1 6 7.5
v 1 6 7.5
v 2 6 7.5
v -2 6 6.5
v -1 6 6.5
v 1 6 6.5
v 2 6 6.5
v -2 7 9.5
v 2 7 9.5
v -1 7 8.5
v 1 7 8.5
v -2 7 7.5
v -1 7 7.5
v 1 7 7.5
v 2 7 7.5
v -2 1 -8.5
v -1 1 -8.5
v 1 1 -8.5
v 2 1 -8.5
v -2 1 -9.5
v -1 1 -9.5
v 1 1 -9.5
v 2 1 -9.5
v -3 2 -7.5
v -2 2 -7.5
v -1 2 -7.5
v 1 2 -7.5
v 2 2 -7.5
v 3 2 -7.5
v -3 2 -8.5
v -1 2 -8.5
v 1 2 -8.5
v 3 2 -8.5
v 2 3 -4.5
v 3 3 -4.5
v -3 3 -5.5
v -2 3 -5.5
v -3 3 -7.5
v -2 3 -7.5
v 2 3 -7.5
v 3 3 -7.5
v -3 4 -2.5
v -2 4 -2.5
v -3 4 -5.5
v -2 4 -5.5
v -3 5 -0.5
v -2 5 -0.5
v -3 5 -2.5
v -2 5 -2.5
v 2 5 -3.5
v 3 5 -3.5
v 2 5 -4.5
v 3 5 -4.5
v -2 5 -6.5
v -1 5 -6.5
v 1 5 -6.5
v 2 5 -6.5
v -2 5 -7.5
v -1 5 -7.5
v 1 5 -7.5
v 2 5 -7.5
v -3 6 2.5
v -2 6 2.5
v 2 6 2.5
v 3 6 2.5
v -3 6 -0.5
v -2 6 -0.5
v -1 6 -0.5
v 1 6 -0.5
v 2 6 -0.5
v -1 6 -2.5
v 1 6 -2.5
v 2 6 -3.5
v 3 6 -3.5
v -2 6 -6.5
v -1 6 -6.5
v 1 6 -6.5
v 2 6 -6.5
v -3 7 3.5
v -2 7 3.5
v 2 7 3.5
v 3 7 3.5
v -3 7 2.5
v -2 7 2.5
v 2 7 2.5
v 3 7 2.5
v -2 7 1.5
v -1 7 1.5
v 1 7 1.5
v 2 7 1.5
v -1 7 0.5
v 1 7 0.5
v -2 7 -0.5
v -1 7 -0.5
v 1 7 -0.5
v 2 7 -0.5
v -1 7 -2.5
v 1 7 -2.5
v -3 8 6.5
v -2 8 6.5
v 2 8 6.5
v 3 8 6.5
v -3 8 3.5
v -2 8 3.5
v -1 8 3.5
v 1 8 3.5
v 2 8 3.5
v 3 8 3.5
v -1 8 2.5
v 1 8 2.5
v -2 8 1.5
v -1 8 1.5
v 1 8 1.5
v 2 8 1.5
v -1 8 0.5
v 1 8 0.5
v -2 9 9.5
v 2 9 9.5
v -2 9 8.5
v -1 9 8.5
v 1 9 8.5
v 2 9 8.5
v -1 9 7.5
v 1 9 7.5
v -1 9 3.5
v 1 9 3.5
v -1 9 2.5
v 1 9 2.5
v -1 10 7.5
v 1 10 7.5
v -2 10 6.5
v -1 10 6.5
v 1 10 6.5
v 2 10 6.5
v -1 10 4.5
v 1 10 4.5
v -2 10 3.5
v -1 10 3.5
v 1 10 3.5
v 2 10 3.5
v -2 12 8.5
v -1 12 8.5
v 1 12 8.5
v 2 12 8.5
v -2 12 6.5
v -1 12 6.5
v 1 12 6.5
v 2 12 6.5

# faces
f 4/1/1 2/1/1 1/1/1
f 5/1/1 2/1/1 4/1/1
f 5/1/1 4/1/1 3/1/1
f 6/1/1 2/1/1 5/1/1
f 7/1/1 2/1/1 6/1/1
f 9/1/1 5/1/1 3/1/1
f 10/1/1 5/1/1 9/1/1
f 11/2/1 6/2/1 5/2/1
f 11/1/1 5/1/1 10/1/1
f 12/2/1 6/2/1 11/2/1
f 14/1/1 10/1/1 9/1/1
f 14/1/1 9/1/1 8/1/1
f 15/1/1 10/1/1 14/1/1
f 16/2/1 11/2/1 10/2/1
f 16/1/1 10/1/1 15/1/1
f 17/2/1 11/2/1 16/2/1
f 18/1/1 15/1/1 14/1/1
f 18/1/1 14/1/1 13/1/1
f 19/2/1 16/2/1 15/2/1
f 19/1/1 15/1/1 18/1/1
f 20/2/1 16/2/1 19/2/1
f 21/2/1 19/2/1 18/2/1
f 22/2/1 19/2/1 21/2/1
f 23/1/1 18/1/1 13/1/1
f 24/2/1 21/2/1 18/2/1
f 24/1/1 18/1/1 23/1/1
f 25/2/1 21/2/1 24/2/1
f 26/2/1 24/2/1 23/2/1
f 27/2/1 24/2/1 26/2/1
f 33/1/1 29/1/1 28/1/1
f 34/1/1 29/1/1 33/1/1
f 35/1/1 29/1/1 34/1/1
f 36/1/1 31/1/1 30/1/1
f 37/1/1 31/1/1 36/1/1
f 39/1/1 33/1/1 32/1/1
f 39/1/1 34/1/1 33/1/1
f 40/1/1 34/1/1 39/1/1
f 41/1/1 34/1/1 40/1/1
f 44/1/1 39/1/1 38/1/1
f 44/1/1 40/1/1 39/1/1
f 45/1/1 40/1/1 44/1/1
f 47/1/1 43/1/1 42/1/1
f 49/1/1 47/1/1 46/1/1
f 50/1/1 43/1/1 47/1/1
f 50/1/1 47/1/1 49/1/1
f 51/1/1 43/1/1 50/1/1
f 55/1/1 49/1/1 48/1/1
f 55/1/1 50/1/1 49/1/1
f 56/1/1 50/1/1 55/1/1
f 58/1/1 53/1/1 52/1/1
f 59/1/1 53/1/1 58/1/1
f 61/1/1 55/1/1 54/1/1
f 62/1/1 55/1/1 61/1/1
f 63/1/1 55/1/1 62/1/1
f 64/2/1 58/2/1 57/2/1
f 65/1/1 59/1/1 58/1/1
f 65/2/1 58/2/1 64/2/1
f 66/1/1 59/1/1 65/1/1
f 67/1/1 61/1/1 60/1/1
f 67/1/1 62/1/1 61/1/1
f 68/1/1 62/1/1 67/1/1
f 69/1/1 66/1/1 65/1/1
f 69/1/1 65/1/1 64/1/1
f 69/1/1 67/1/1 66/1/1
f 70/1/1 67/1/1 69/1/1
f 71/1/1 67/1/1 70/1/1
f 72/3/1 71/3/1 70/3/1
f 73/1/1 67/1/1 71/1/1
f 73/3/1 71/3/1 72/3/1
f 74/1/1 67/1/1 73/1/1
f 75/1/1 67/1/1 74/1/1
f 76/4/1 73/4/1 72/4/1
f 77/1/1 74/1/1 73/1/1
f 77/4/1 73/4/1 76/4/1
f 78/1/1 77/1/1 76/1/1
f 79/1/1 74/1/1 77/1/1
f 79/1/1 77/1/1 78/1/1
f 82/2/1 81/2/1 80/2/1
f 83/2/1 81/2/1 82/2/1
f 87/2/1 85/2/1 84/2/1
f 88/2/1 85/2/1 87/2/1
f 91/2/1 87/2/1 86/2/1
f 92/2/1 87/2/1 91/2/1
f 95/2/1 90/2/1 89/2/1
f 96/2/1 90/2/1 95/2/1
f 99/2/1 94/2/1 93/2/1
f 100/2/1 94/2/1 99/2/1
f 101/2/1 98/2/1 97/2/1
f 102/2/1 98/2/1 101/2/1
f 105/3/1 104/3/1 103/3/1
f 106/3/1 104/3/1 105/3/1
f 108/4/1 106/4/1 105/4/1
f 109/1/1 107/1/1 106/1/1
f 109/4/1 106/4/1 108/4/1
f 110/1/1 109/1/1 108/1/1
f 111/1/1 107/1/1 109/1/1
f 111/1/1 109/1/1 110/1/1
f 112/3/2 113/3/2 114/3/2
f 114/3/2 113/3/2 115/3/2
f 114/4/2 115/4/2 117/4/2
f 115/1/2 116/1/2 118/1/2
f 117/4/2 115/4/2 118/4/2
f 117/1/2 118/1/2 119/1/2
f 118/1/2 116/1/2 120/1/2
f 119/1/2 118/1/2 120/1/2
f 121/2/2 122/2/2 123/2/2
f 123/2/2 122/2/2 124/2/2
f 125/2/2 126/2/2 128/2/2
f 128/2/2 126/2/2 129/2/2
f 127/2/2 128/2/2 132/2/2
f 132/2/2 128/2/2 133/2/2
f 130/2/2 131/2/2 136/2/2
f 136/2/2 131/2/2 137/2/2
f 134/2/2 135/2/2 140/2/2
f 140/2/2 135/2/2 141/2/2
f 138/2/2 139/2/2 142/2/2
f 142/2/2 139/2/2 143/2/2
f 144/1/2 145/1/2 149/1/2
f 149/1/2 145/1/2 150/1/2
f 150/1/2 145/1/2 151/1/2
f 146/1/2 147/1/2 152/1/2
f 152/1/2 147/1/2 153/1/2
f 148/1/2 149/1/2 154/1/2
f 149/1/2 150/1/2 154/1/2
f 154/1/2 150/1/2 155/1/2
f 148/1/2 154/1/2 157/1/2
f 157/1/2 154/1/2 158/1/2
f 156/1/2 157/1/2 161/1/2
f 161/1/2 157/1/2 162/1/2
f 159/1/2 160/1/2 164/1/2
f 164/1/2 160/1/2 165/1/2
f 165/1/2 160/1/2 166/1/2
f 163/1/2 164/1/2 171/1/2
f 164/1/2 165/1/2 171/1/2
f 171/1/2 165/1/2 172/1/2
f 167/1/2 168/1/2 174/1/2
f 174/1/2 168/1/2 175/1/2
f 169/1/2 170/1/2 177/1/2
f 177/1/2 170/1/2 178/1/2
f 178/1/2 170/1/2 179/1/2
f 173/2/2 174/2/2 180/2/2
f 174/1/2 175/1/2 181/1/2
f 180/2/2 174/2/2 181/2/2
f 181/1/2 175/1/2 182/1/2
f 176/1/2 177/1/2 183/1/2
f 177/1/2 178/1/2 183/1/2
f 183/1/2 178/1/2 184/1/2
f 181/1/2 182/1/2 185/1/2
f 180/1/2 181/1/2 185/1/2
f 182/1/2 183/1/2 185/1/2
f 185/1/2 183/1/2 186/1/2
f 186/1/2 183/1/2 187/1/2
f 186/3/2 187/3/2 188/3/2
f 187/1/2 183/1/2 189/1/2
f 188/3/2 187/3/2 189/3/2
f 189/1/2 183/1/2 190/1/2
f 190/1/2 183/1/2 191/1/2
f 188/4/2 189/4/2 192/4/2
f 189/1/2 190/1/2 193/1/2
f 192/4/2 189/4/2 193/4/2
f 192/1/2 193/1/2 194/1/2
f 193/1/2 190/1/2 195/1/2
f 194/1/2 193/1/2 195/1/2
f 196/1/2 197/1/2 199/1/2
f 198/1/2 199/1/2 201/1/2
f 199/1/2 197/1/2 202/1/2
f 201/1/2 199/1/2 202/1/2
f 202/1/2 197/1/2 203/1/2
f 203/1/2 197/1/2 204/1/2
f 200/1/2 201/1/2 206/1/2
f 201/1/2 202/1/2 206/1/2
f 206/1/2 202/1/2 207/1/2
f 202/2/2 203/2/2 208/2/2
f 207/1/2 202/1/2 208/1/2
f 208/2/2 203/2/2 209/2/2
f 206/1/2 207/1/2 211/1/2
f 205/1/2 206/1/2 211/1/2
f 211/1/2 207/1/2 212/1/2
f 210/1/2 211/1/2 212/1/2
f 207/2/2 208/2/2 213/2/2
f 212/1/2 207/1/2 213/1/2
f 213/2/2 208/2/2 214/2/2
f 210/1/2 212/1/2 215/1/2
f 212/2/2 213/2/2 216/2/2
f 215/1/2 212/1/2 216/1/2
f 216/2/2 213/2/2 217/2/2
f 210/1/2 215/1/2 218/1/2
f 215/2/2 216/2/2 219/2/2
f 218/1/2 215/1/2 219/1/2
f 219/2/2 216/2/2 220/2/2
f 218/2/2 219/2/2 221/2/2
f 221/2/2 219/2/2 222/2/2
f 226/2/3 224/2/3 223/2/3
f 227/1/3 225/1/3 224/1/3
f 227/2/3 224/2/3 226/2/3
f 228/1/3 225/1/3 227/1/3
f 235/3/3 230/3/3 229/3/3
f 236/4/3 231/4/3 230/4/3
f 236/3/3 230/3/3 235/3/3
f 237/1/3 232/1/3 231/1/3
f 237/4/3 231/4/3 236/4/3
f 238/1/3 232/1/3 237/1/3
f 239/2/3 234/2/3 233/2/3
f 240/2/3 234/2/3 239/2/3
f 245/3/3 242/3/3 241/3/3
f 246/4/3 243/4/3 242/4/3
f 246/3/3 242/3/3 245/3/3
f 247/1/3 244/1/3 243/1/3
f 247/4/3 243/4/3 246/4/3
f 248/1/3 244/1/3 247/1/3
f 252/1/3 250/1/3 249/1/3
f 253/1/3 250/1/3 252/1/3
f 256/2/3 252/2/3 251/2/3
f 257/2/3 252/2/3 256/2/3
f 259/1/3 255/1/3 254/1/3
f 260/1/3 255/1/3 259/1/3
f 261/1/3 258/1/3 257/1/3
f 262/1/3 258/1/3 261/1/3
f 267/1/3 264/1/3 263/1/3
f 268/1/3 264/1/3 267/1/3
f 269/2/3 265/2/3 264/2/3
f 269/1/3 264/1/3 268/1/3
f 270/2/3 265/2/3 269/2/3
f 271/1/3 268/1/3 267/1/3
f 271/1/3 267/1/3 266/1/3
f 272/1/3 268/1/3 271/1/3
f 273/1/3 268/1/3 272/1/3
f 274/2/3 272/2/3 271/2/3
f 275/2/3 272/2/3 274/2/3
f 277/1/3 275/1/3 274/1/3
f 277/1/3 276/1/3 275/1/3
f 278/1/3 276/1/3 277/1/3
f 279/1/3 276/1/3 278/1/3
f 282/1/3 279/1/3 278/1/3
f 282/1/3 280/1/3 279/1/3
f 283/2/3 281/2/3 280/2/3
f 283/1/3 280/1/3 282/1/3
f 284/2/3 281/2/3 283/2/3
f 287/2/3 286/2/3 285/2/3
f 288/2/3 286/2/3 287/2/3
f 291/1/3 290/1/3 289/1/3
f 292/1/3 290/1/3 291/1/3
f 293/1/3 290/1/3 292/1/3
f 294/2/3 292/2/3 291/2/3
f 295/2/3 292/2/3 294/2/3
f 297/1/3 295/1/3 294/1/3
f 297/1/3 296/1/3 295/1/3
f 298/1/3 296/1/3 297/1/3
f 300/1/3 299/1/3 298/1/3
f 301/1/3 299/1/3 300/1/3
f 306/1/3 303/1/3 302/1/3
f 307/1/3 303/1/3 306/1/3
f 308/1/3 305/1/3 304/1/3
f 309/1/3 305/1/3 308/1/3
f 310/2/3 309/2/3 308/2/3
f 311/2/3 309/2/3 310/2/3
f 312/1/3 311/1/3 310/1/3
f 313/1/3 311/1/3 312/1/3
f 316/1/3 315/1/3 314/1/3
f 317/1/3 315/1/3 316/1/3
f 320/1/3 319/1/3 318/1/3
f 321/1/3 319/1/3 320/1/3
f 324/1/3 323/1/3 322/1/3
f 325/1/3 323/1/3 324/1/3
f 328/1/3 327/1/3 326/1/3
f 329/1/3 327/1/3 328/1/3
f 332/1/3 331/1/3 330/1/3
f 333/1/3 331/1/3 332/1/3
f 334/1/4 335/1/4 336/1/4
f 336/1/4 335/1/4 337/1/4
f 338/1/4 339/1/4 340/1/4
f 340/1/4 339/1/4 341/1/4
f 342/2/4 343/2/4 344/2/4
f 344/2/4 343/2/4 345/2/4
f 345/1/4 346/1/4 347/1/4
f 347/1/4 346/1/4 348/1/4
f 348/1/4 346/1/4 349/1/4
f 348/2/4 349/2/4 351/2/4
f 351/2/4 349/2/4 352/2/4
f 350/1/4 351/1/4 354/1/4
f 351/1/4 352/1/4 354/1/4
f 354/1/4 352/1/4 355/1/4
f 353/2/4 354/2/4 356/2/4
f 356/2/4 354/2/4 357/2/4
f 358/2/4 359/2/4 360/2/4
f 360/2/4 359/2/4 361/2/4
f 362/2/4 363/2/4 364/2/4
f 364/2/4 363/2/4 365/2/4
f 366/2/4 367/2/4 368/2/4
f 368/2/4 367/2/4 369/2/4
f 370/1/4 371/1/4 372/1/4
f 372/1/4 371/1/4 373/1/4
f 374/1/4 375/1/4 376/1/4
f 376/1/4 375/1/4 377/1/4
f 378/2/4 379/2/4 380/2/4
f 380/2/4 379/2/4 381/2/4
f 382/2/4 383/2/4 384/2/4
f 384/2/4 383/2/4 385/2/4
f 385/1/4 386/1/4 387/1/4
f 387/1/4 386/1/4 388/1/4
f 389/1/4 390/1/4 391/1/4
f 391/1/4 390/1/4 392/1/4
f 393/2/4 394/2/4 395/2/4
f 395/2/4 394/2/4 396/2/4
f 397/2/4 398/2/4 399/2/4
f 399/2/4 398/2/4 400/2/4
f 401/2/4 402/2/4 403/2/4
f 403/2/4 402/2/4 404/2/4
f 405/2/4 406/2/4 407/2/4
f 407/2/4 406/2/4 408/2/4
f 409/2/4 410/2/4 411/2/4
f 411/2/4 410/2/4 412/2/4
f 413/1/4 414/1/4 415/1/4
f 415/1/4 414/1/4 416/1/4
f 415/2/4 416/2/4 417/2/4
f 417/2/4 416/2/4 418/2/4
f 417/1/4 418/1/4 419/1/4
f 419/1/4 418/1/4 420/1/4
f 421/2/4 422/2/4 423/2/4
f 423/2/4 422/2/4 424/2/4
f 423/1/4 424/1/4 426/1/4
f 424/1/4 425/1/4 426/1/4
f 426/1/4 425/1/4 427/1/4
f 426/2/4 427/2/4 428/2/4
f 428/2/4 427/2/4 429/2/4
f 428/1/4 429/1/4 430/1/4
f 430/1/4 429/1/4 431/1/4
f 431/1/4 429/1/4 432/1/4
f 430/2/4 431/2/4 433/2/4
f 433/2/4 431/2/4 434/2/4
f 435/1/4 436/1/4 437/1/4
f 437/1/4 436/1/4 438/1/4
f 438/1/4 436/1/4 439/1/4
f 439/1/4 436/1/4 440/1/4
f 439/2/4 440/2/4 441/2/4
f 441/2/4 440/2/4 442/2/4
f 441/1/4 442/1/4 444/1/4
f 443/1/4 444/1/4 445/1/4
f 444/1/4 442/1/4 446/1/4
f 445/1/4 444/1/4 446/1/4
f 447/1/4 448/1/4 449/1/4
f 449/1/4 448/1/4 450/1/4
f 449/2/4 450/2/4 451/2/4
f 451/2/4 450/2/4 452/2/4
f 451/1/4 452/1/4 453/1/4
f 453/1/4 452/1/4 454/1/4
f 460/1/5 456/1/5 455/1/5
f 461/1/5 458/1/5 457/1/5
f 463/1/5 460/1/5 459/1/5
f 464/1/5 456/1/5 460/1/5
f 464/1/5 460/1/5 463/1/5
f 465/1/5 462/1/5 461/1/5
f 465/1/5 461/1/5 457/1/5
f 466/1/5 462/1/5 465/1/5
f 467/1/5 456/1/5 464/1/5
f 468/2/5 457/2/5 456/2/5
f 468/1/5 456/1/5 467/1/5
f 469/1/5 465/1/5 457/1/5
f 469/2/5 457/2/5 468/2/5
f 470/1/5 465/1/5 469/1/5
f 475/1/5 472/1/5 471/1/5
f 476/2/5 473/2/5 472/2/5
f 476/1/5 472/1/5 475/1/5
f 477/1/5 474/1/5 473/1/5
f 477/2/5 473/2/5 476/2/5
f 478/1/5 474/1/5 477/1/5
f 483/1/5 480/1/5 479/1/5
f 484/1/5 480/1/5 483/1/5
f 485/1/5 482/1/5 481/1/5
f 486/1/5 482/1/5 485/1/5
f 489/2/5 488/2/5 487/2/5
f 490/2/5 488/2/5 489/2/5
f 493/1/5 492/1/5 491/1/5
f 494/1/5 492/1/5 493/1/5
f 499/1/5 496/1/5 495/1/5
f 499/2/5 497/2/5 496/2/5
f 500/1/5 498/1/5 497/1/5
f 500/2/5 497/2/5 499/2/5
f 501/1/5 499/1/5 495/1/5
f 502/1/5 499/1/5 501/1/5
f 503/1/5 498/1/5 500/1/5
f 504/1/5 498/1/5 503/1/5
f 508/1/5 505/1/5 504/1/5
f 509/1/5 505/1/5 508/1/5
f 510/1/5 507/1/5 506/1/5
f 511/1/5 507/1/5 510/1/5
f 516/2/5 513/2/5 512/2/5
f 517/2/5 513/2/5 516/2/5
f 520/1/5 519/1/5 518/1/5
f 521/1/5 519/1/5 520/1/5
f 522/1/5 515/1/5 514/1/5
f 523/1/5 515/1/5 522/1/5
f 527/2/5 525/2/5 524/2/5
f 528/2/5 525/2/5 527/2/5
f 530/1/5 527/1/5 526/1/5
f 531/1/5 527/1/5 530/1/5
f 532/1/5 529/1/5 528/1/5
f 533/1/5 529/1/5 532/1/5
f 536/2/5 535/2/5 534/2/5
f 537/2/5 535/2/5 536/2/5
f 538/2/5 536/2/5 534/2/5
f 539/2/5 536/2/5 538/2/5
f 540/2/5 535/2/5 537/2/5
f 541/2/5 535/2/5 540/2/5
f 542/1/6 543/1/6 546/1/6
f 543/2/6 544/2/6 547/2/6
f 546/1/6 543/1/6 547/1/6
f 544/1/6 545/1/6 548/1/6
f 547/2/6 544/2/6 548/2/6
f 548/1/6 545/1/6 549/1/6
f 550/1/6 551/1/6 556/1/6
f 551/1/6 552/1/6 556/1/6
f 552/2/6 553/2/6 557/2/6
f 556/1/6 552/1/6 557/1/6
f 554/1/6 555/1/6 558/1/6
f 557/2/6 553/2/6 558/2/6
f 553/1/6 554/1/6 558/1/6
f 558/1/6 555/1/6 559/1/6
f 562/2/6 563/2/6 564/2/6
f 564/2/6 563/2/6 565/2/6
f 560/2/6 561/2/6 566/2/6
f 566/2/6 561/2/6 567/2/6
f 568/2/6 569/2/6 570/2/6
f 570/2/6 569/2/6 571/2/6
f 572/2/6 573/2/6 574/2/6
f 574/2/6 573/2/6 575/2/6
f 576/2/6 577/2/6 578/2/6
f 578/2/6 577/2/6 579/2/6
f 580/1/6 581/1/6 584/1/6
f 581/2/6 582/2/6 585/2/6
f 584/1/6 581/1/6 585/1/6
f 582/1/6 583/1/6 586/1/6
f 585/2/6 582/2/6 586/2/6
f 586/1/6 583/1/6 587/1/6
f 588/2/6 589/2/6 592/2/6
f 592/2/6 589/2/6 593/2/6
f 590/2/6 591/2/6 596/2/6
f 593/1/6 594/1/6 597/1/6
f 595/1/6 596/1/6 598/1/6
f 596/2/6 591/2/6 599/2/6
f 598/1/6 596/1/6 599/1/6
f 599/2/6 591/2/6 600/2/6
f 593/1/6 597/1/6 601/1/6
f 597/2/6 598/2/6 602/2/6
f 601/1/6 597/1/6 602/1/6
f 598/1/6 599/1/6 603/1/6
f 602/2/6 598/2/6 603/2/6
f 603/1/6 599/1/6 604/1/6
f 605/2/6 606/2/6 609/2/6
f 609/2/6 606/2/6 610/2/6
f 607/2/6 608/2/6 611/2/6
f 611/2/6 608/2/6 612/2/6
f 613/1/6 614/1/6 617/1/6
f 615/1/6 616/1/6 618/1/6
f 613/1/6 617/1/6 619/1/6
f 617/2/6 618/2/6 620/2/6
f 619/1/6 617/1/6 620/1/6
f 618/1/6 616/1/6 621/1/6
f 620/2/6 618/2/6 621/2/6
f 621/1/6 616/1/6 622/1/6
f 620/2/6 621/2/6 623/2/6
f 623/2/6 621/2/6 624/2/6
f 625/2/6 626/2/6 629/2/6
f 629/2/6 626/2/6 630/2/6
f 627/2/6 628/2/6 633/2/6
f 633/2/6 628/2/6 634/2/6
f 630/1/6 631/1/6 635/1/6
f 632/1/6 633/1/6 636/1/6
f 630/1/6 635/1/6 637/1/6
f 635/2/6 636/2/6 638/2/6
f 637/1/6 635/1/6 638/1/6
f 636/1/6 633/1/6 639/1/6
f 638/2/6 636/2/6 639/2/6
f 639/1/6 633/1/6 640/1/6
f 638/2/6 639/2/6 641/2/6
f 641/2/6 639/2/6 642/2/6
f 643/1/6 644/1/6 645/1/6
f 645/1/6 644/1/6 646/1/6
f 646/1/6 644/1/6 647/1/6
f 647/1/6 644/1/6 648/1/6
f 646/1/6 647/1/6 649/1/6
f 649/1/6 647/1/6 650/1/6
f 651/2/6 652/2/6 653/2/6
f 653/2/6 652/2/6 654/2/6
f 655/1/6 656/1/6 658/1/6
f 658/1/6 656/1/6 659/1/6
f 657/1/6 658/1/6 661/1/6
f 659/1/6 660/1/6 661/1/6
f 658/1/6 659/1/6 661/1/6
f 661/1/6 660/1/6 662/1/6
f 657/1/6 661/1/6 663/1/6
f 661/2/6 662/2/6 664/2/6
f 663/1/6 661/1/6 664/1/6
f 662/1/6 660/1/6 665/1/6
f 664/2/6 662/2/6 665/2/6
f 665/1/6 660/1/6 666/1/6
f 667/1/6 668/1/6 671/1/6
f 671/1/6 668/1/6 672/1/6
f 669/1/6 670/1/6 673/1/6
f 673/1/6 670/1/6 674/1/6
