# MagicaVoxel @ Ephtracy

# material
mtllib platform-3.mtl
usemtl palette

# normals
vn -1 0 0
vn 1 0 0
vn 0 0 1
vn 0 0 -1
vn 0 -1 0
vn 0 1 0

# texcoords
vt 0.654297 0.5
vt 0.904297 0.5
vt 0.958984 0.5
vt 0.982422 0.5
vt 0.986328 0.5

# verts
v -7.5 0 1.5
v -7.5 0 -1.5
v -7.5 1 1.5
v -7.5 1 0.5
v -7.5 1 -0.5
v -7.5 1 -1.5
v -7.5 2 0.5
v -7.5 2 -0.5
v -6.5 0 2.5
v -6.5 0 1.5
v -6.5 0 -1.5
v -6.5 0 -2.5
v -6.5 1 2.5
v -6.5 1 1.5
v -6.5 1 0.5
v -6.5 1 -0.5
v -6.5 1 -1.5
v -6.5 1 -2.5
v -6.5 2 1.5
v -6.5 2 0.5
v -6.5 2 -0.5
v -6.5 2 -1.5
v -5.5 1 2.5
v -5.5 1 1.5
v -5.5 1 -1.5
v -5.5 1 -2.5
v -5.5 2 2.5
v -5.5 2 1.5
v -5.5 2 -1.5
v -5.5 2 -2.5
v -3.5 0 2.5
v -3.5 0 1.5
v -3.5 0 -1.5
v -3.5 0 -2.5
v -3.5 1 2.5
v -3.5 1 1.5
v -3.5 1 0.5
v -3.5 1 -0.5
v -3.5 1 -1.5
v -3.5 1 -2.5
v -3.5 2 2.5
v -3.5 2 1.5
v -3.5 2 0.5
v -3.5 2 -0.5
v -3.5 2 -1.5
v -3.5 2 -2.5
v 5.5 1 0.5
v 5.5 1 -0.5
v 5.5 2 0.5
v 5.5 2 -0.5
v 6.5 2 0.5
v 6.5 2 -0.5
v 6.5 3 0.5
v 6.5 3 -0.5
v -4.5 0 2.5
v -4.5 0 1.5
v -4.5 0 -1.5
v -4.5 0 -2.5
v -4.5 1 1.5
v -4.5 1 -1.5
v -4.5 2 2.5
v -4.5 2 -2.5
v 4.5 0 2.5
v 4.5 0 1.5
v 4.5 0 -1.5
v 4.5 0 -2.5
v 4.5 1 1.5
v 4.5 1 -1.5
v 4.5 2 2.5
v 4.5 2 -2.5
v 5.5 0 1.5
v 5.5 0 0.5
v 5.5 0 -0.5
v 5.5 0 -1.5
v 5.5 1 1.5
v 5.5 1 0.5
v 5.5 1 -0.5
v 5.5 1 -1.5
v 7.5 0 0.5
v 7.5 0 -0.5
v 7.5 3 0.5
v 7.5 3 -0.5
v -6.5 0 2.5
v -6.5 1 2.5
v -5.5 1 2.5
v -5.5 2 2.5
v -4.5 0 2.5
v -4.5 2 2.5
v -3.5 0 2.5
v -3.5 1 2.5
v -3.5 2 2.5
v -2.5 1 2.5
v -2.5 2 2.5
v -1.5 0 2.5
v -1.5 1 2.5
v -0.5 0 2.5
v -0.5 1 2.5
v 0.5 1 2.5
v 0.5 2 2.5
v 1.5 1 2.5
v 1.5 2 2.5
v 2.5 0 2.5
v 2.5 1 2.5
v 3.5 0 2.5
v 3.5 1 2.5
v 4.5 0 2.5
v 4.5 2 2.5
v -7.5 0 1.5
v -7.5 1 1.5
v -6.5 0 1.5
v -6.5 1 1.5
v -6.5 2 1.5
v -5.5 1 1.5
v -5.5 2 1.5
v -4.5 0 1.5
v -4.5 1 1.5
v -3.5 0 1.5
v -3.5 1 1.5
v 4.5 0 1.5
v 4.5 1 1.5
v 5.5 0 1.5
v 5.5 1 1.5
v -7.5 1 0.5
v -7.5 2 0.5
v -6.5 1 0.5
v -6.5 2 0.5
v 5.5 0 0.5
v 5.5 1 0.5
v 5.5 2 0.5
v 6.5 2 0.5
v 6.5 3 0.5
v 7.5 0 0.5
v 7.5 3 0.5
v -7.5 1 -0.5
v -7.5 2 -0.5
v -6.5 1 -0.5
v -6.5 2 -0.5
v 5.5 0 -0.5
v 5.5 1 -0.5
v 5.5 2 -0.5
v 6.5 2 -0.5
v 6.5 3 -0.5
v 7.5 0 -0.5
v 7.5 3 -0.5
v -7.5 0 -1.5
v -7.5 1 -1.5
v -6.5 0 -1.5
v -6.5 1 -1.5
v -6.5 2 -1.5
v -5.5 1 -1.5
v -5.5 2 -1.5
v -4.5 0 -1.5
v -4.5 1 -1.5
v -3.5 0 -1.5
v -3.5 1 -1.5
v 4.5 0 -1.5
v 4.5 1 -1.5
v 5.5 0 -1.5
v 5.5 1 -1.5
v -6.5 0 -2.5
v -6.5 1 -2.5
v -5.5 1 -2.5
v -5.5 2 -2.5
v -4.5 0 -2.5
v -4.5 2 -2.5
v -3.5 0 -2.5
v -3.5 1 -2.5
v -3.5 2 -2.5
v -2.5 1 -2.5
v -2.5 2 -2.5
v -1.5 0 -2.5
v -1.5 1 -2.5
v -0.5 0 -2.5
v -0.5 1 -2.5
v 0.5 1 -2.5
v 0.5 2 -2.5
v 1.5 1 -2.5
v 1.5 2 -2.5
v 2.5 0 -2.5
v 2.5 1 -2.5
v 3.5 0 -2.5
v 3.5 1 -2.5
v 4.5 0 -2.5
v 4.5 2 -2.5
v -6.5 0 2.5
v -4.5 0 2.5
v -3.5 0 2.5
v -1.5 0 2.5
v -0.5 0 2.5
v 2.5 0 2.5
v 3.5 0 2.5
v 4.5 0 2.5
v -7.5 0 1.5
v -6.5 0 1.5
v -4.5 0 1.5
v -3.5 0 1.5
v -2.5 0 1.5
v 0.5 0 1.5
v 1.5 0 1.5
v 4.5 0 1.5
v 5.5 0 1.5
v 5.5 0 0.5
v 7.5 0 0.5
v 5.5 0 -0.5
v 7.5 0 -0.5
v -7.5 0 -1.5
v -6.5 0 -1.5
v -4.5 0 -1.5
v -3.5 0 -1.5
v -2.5 0 -1.5
v 0.5 0 -1.5
v 1.5 0 -1.5
v 4.5 0 -1.5
v 5.5 0 -1.5
v -6.5 0 -2.5
v -4.5 0 -2.5
v -3.5 0 -2.5
v -1.5 0 -2.5
v -0.5 0 -2.5
v 2.5 0 -2.5
v 3.5 0 -2.5
v 4.5 0 -2.5
v -6.5 1 2.5
v -5.5 1 2.5
v -7.5 1 1.5
v -6.5 1 1.5
v -5.5 1 1.5
v -4.5 1 1.5
v -3.5 1 1.5
v 4.5 1 1.5
v 5.5 1 1.5
v -7.5 1 0.5
v -6.5 1 0.5
v -3.5 1 0.5
v 5.5 1 0.5
v -7.5 1 -0.5
v -6.5 1 -0.5
v -3.5 1 -0.5
v 5.5 1 -0.5
v -7.5 1 -1.5
v -6.5 1 -1.5
v -5.5 1 -1.5
v -4.5 1 -1.5
v -3.5 1 -1.5
v 4.5 1 -1.5
v 5.5 1 -1.5
v -6.5 1 -2.5
v -5.5 1 -2.5
v -5.5 2 2.5
v -4.5 2 2.5
v -3.5 2 2.5
v -2.5 2 2.5
v 0.5 2 2.5
v 1.5 2 2.5
v 4.5 2 2.5
v -6.5 2 1.5
v -5.5 2 1.5
v -3.5 2 1.5
v -2.5 2 1.5
v -1.5 2 1.5
v -0.5 2 1.5
v 0.5 2 1.5
v 1.5 2 1.5
v 2.5 2 1.5
v 3.5 2 1.5
v -7.5 2 0.5
v -6.5 2 0.5
v -5.5 2 0.5
v -3.5 2 0.5
v -2.5 2 0.5
v -1.5 2 0.5
v -0.5 2 0.5
v 0.5 2 0.5
v 1.5 2 0.5
v 2.5 2 0.5
v 3.5 2 0.5
v 5.5 2 0.5
v 6.5 2 0.5
v -7.5 2 -0.5
v -6.5 2 -0.5
v -5.5 2 -0.5
v -3.5 2 -0.5
v -2.5 2 -0.5
v -1.5 2 -0.5
v -0.5 2 -0.5
v 0.5 2 -0.5
v 1.5 2 -0.5
v 2.5 2 -0.5
v 3.5 2 -0.5
v 5.5 2 -0.5
v 6.5 2 -0.5
v -6.5 2 -1.5
v -5.5 2 -1.5
v -3.5 2 -1.5
v -2.5 2 -1.5
v -1.5 2 -1.5
v -0.5 2 -1.5
v 0.5 2 -1.5
v 1.5 2 -1.5
v 2.5 2 -1.5
v 3.5 2 -1.5
v -5.5 2 -2.5
v -4.5 2 -2.5
v -3.5 2 -2.5
v -2.5 2 -2.5
v 0.5 2 -2.5
v 1.5 2 -2.5
v 4.5 2 -2.5
v 6.5 3 0.5
v 7.5 3 0.5
v 6.5 3 -0.5
v 7.5 3 -0.5

# faces
f 3/4/1 2/4/1 1/4/1
f 4/4/1 2/4/1 3/4/1
f 5/4/1 2/4/1 4/4/1
f 6/4/1 2/4/1 5/4/1
f 7/5/1 5/5/1 4/5/1
f 8/5/1 5/5/1 7/5/1
f 13/4/1 10/4/1 9/4/1
f 14/4/1 10/4/1 13/4/1
f 17/4/1 12/4/1 11/4/1
f 18/4/1 12/4/1 17/4/1
f 19/3/1 15/3/1 14/3/1
f 20/3/1 15/3/1 19/3/1
f 21/3/1 17/3/1 16/3/1
f 22/3/1 17/3/1 21/3/1
f 27/4/1 24/4/1 23/4/1
f 28/4/1 24/4/1 27/4/1
f 29/4/1 26/4/1 25/4/1
f 30/4/1 26/4/1 29/4/1
f 35/2/1 32/2/1 31/2/1
f 36/2/1 32/2/1 35/2/1
f 39/2/1 34/2/1 33/2/1
f 40/2/1 34/2/1 39/2/1
f 41/1/1 36/1/1 35/1/1
f 42/2/1 37/2/1 36/2/1
f 42/1/1 36/1/1 41/1/1
f 43/1/1 38/1/1 37/1/1
f 43/2/1 37/2/1 42/2/1
f 44/2/1 39/2/1 38/2/1
f 44/1/1 38/1/1 43/1/1
f 45/1/1 40/1/1 39/1/1
f 45/2/1 39/2/1 44/2/1
f 46/1/1 40/1/1 45/1/1
f 49/4/1 48/4/1 47/4/1
f 50/4/1 48/4/1 49/4/1
f 53/4/1 52/4/1 51/4/1
f 54/4/1 52/4/1 53/4/1
f 55/4/2 56/4/2 59/4/2
f 57/4/2 58/4/2 60/4/2
f 55/4/2 59/4/2 61/4/2
f 59/4/2 60/4/2 61/4/2
f 60/4/2 58/4/2 62/4/2
f 61/4/2 60/4/2 62/4/2
f 63/2/2 64/2/2 67/2/2
f 65/2/2 66/2/2 68/2/2
f 63/2/2 67/2/2 69/2/2
f 67/2/2 68/2/2 69/2/2
f 68/2/2 66/2/2 70/2/2
f 69/2/2 68/2/2 70/2/2
f 71/4/2 72/4/2 75/4/2
f 75/4/2 72/4/2 76/4/2
f 73/4/2 74/4/2 77/4/2
f 77/4/2 74/4/2 78/4/2
f 79/4/2 80/4/2 81/4/2
f 81/4/2 80/4/2 82/4/2
f 85/4/3 84/4/3 83/4/3
f 87/4/3 85/4/3 83/4/3
f 87/4/3 86/4/3 85/4/3
f 88/4/3 86/4/3 87/4/3
f 92/2/3 90/2/3 89/2/3
f 92/1/3 91/1/3 90/1/3
f 93/1/3 91/1/3 92/1/3
f 94/2/3 92/2/3 89/2/3
f 94/2/3 93/2/3 92/2/3
f 95/2/3 93/2/3 94/2/3
f 96/1/3 95/1/3 94/1/3
f 97/2/3 93/2/3 95/2/3
f 97/1/3 95/1/3 96/1/3
f 98/2/3 97/2/3 96/2/3
f 98/2/3 93/2/3 97/2/3
f 99/2/3 93/2/3 98/2/3
f 100/2/3 98/2/3 96/2/3
f 100/1/3 99/1/3 98/1/3
f 101/1/3 99/1/3 100/1/3
f 102/2/3 100/2/3 96/2/3
f 102/2/3 101/2/3 100/2/3
f 103/2/3 101/2/3 102/2/3
f 104/1/3 103/1/3 102/1/3
f 105/2/3 101/2/3 103/2/3
f 105/1/3 103/1/3 104/1/3
f 106/2/3 105/2/3 104/2/3
f 107/2/3 101/2/3 105/2/3
f 107/2/3 105/2/3 106/2/3
f 110/4/3 109/4/3 108/4/3
f 111/4/3 109/4/3 110/4/3
f 113/3/3 112/3/3 111/3/3
f 114/3/3 112/3/3 113/3/3
f 117/4/3 116/4/3 115/4/3
f 118/4/3 116/4/3 117/4/3
f 121/4/3 120/4/3 119/4/3
f 122/4/3 120/4/3 121/4/3
f 125/5/3 124/5/3 123/5/3
f 126/5/3 124/5/3 125/5/3
f 130/4/3 128/4/3 127/4/3
f 130/4/3 129/4/3 128/4/3
f 132/4/3 130/4/3 127/4/3
f 132/4/3 131/4/3 130/4/3
f 133/4/3 131/4/3 132/4/3
f 134/5/4 135/5/4 136/5/4
f 136/5/4 135/5/4 137/5/4
f 138/4/4 139/4/4 141/4/4
f 139/4/4 140/4/4 141/4/4
f 138/4/4 141/4/4 143/4/4
f 141/4/4 142/4/4 143/4/4
f 143/4/4 142/4/4 144/4/4
f 145/4/4 146/4/4 147/4/4
f 147/4/4 146/4/4 148/4/4
f 148/3/4 149/3/4 150/3/4
f 150/3/4 149/3/4 151/3/4
f 152/4/4 153/4/4 154/4/4
f 154/4/4 153/4/4 155/4/4
f 156/4/4 157/4/4 158/4/4
f 158/4/4 157/4/4 159/4/4
f 160/4/4 161/4/4 162/4/4
f 160/4/4 162/4/4 164/4/4
f 162/4/4 163/4/4 164/4/4
f 164/4/4 163/4/4 165/4/4
f 166/2/4 167/2/4 169/2/4
f 167/1/4 168/1/4 169/1/4
f 169/1/4 168/1/4 170/1/4
f 166/2/4 169/2/4 171/2/4
f 169/2/4 170/2/4 171/2/4
f 171/2/4 170/2/4 172/2/4
f 171/1/4 172/1/4 173/1/4
f 172/2/4 170/2/4 174/2/4
f 173/1/4 172/1/4 174/1/4
f 173/2/4 174/2/4 175/2/4
f 174/2/4 170/2/4 175/2/4
f 175/2/4 170/2/4 176/2/4
f 173/2/4 175/2/4 177/2/4
f 175/1/4 176/1/4 177/1/4
f 177/1/4 176/1/4 178/1/4
f 173/2/4 177/2/4 179/2/4
f 177/2/4 178/2/4 179/2/4
f 179/2/4 178/2/4 180/2/4
f 179/1/4 180/1/4 181/1/4
f 180/2/4 178/2/4 182/2/4
f 181/1/4 180/1/4 182/1/4
f 181/2/4 182/2/4 183/2/4
f 182/2/4 178/2/4 184/2/4
f 183/2/4 182/2/4 184/2/4
f 194/4/5 186/4/5 185/4/5
f 195/4/5 186/4/5 194/4/5
f 196/2/5 188/2/5 187/2/5
f 197/2/5 188/2/5 196/2/5
f 198/2/5 190/2/5 189/2/5
f 199/2/5 190/2/5 198/2/5
f 200/2/5 192/2/5 191/2/5
f 202/4/5 201/4/5 200/4/5
f 204/4/5 202/4/5 200/4/5
f 204/4/5 203/4/5 202/4/5
f 205/4/5 203/4/5 204/4/5
f 206/4/5 195/4/5 194/4/5
f 206/4/5 194/4/5 193/4/5
f 206/4/5 196/4/5 195/4/5
f 207/4/5 196/4/5 206/4/5
f 208/4/5 196/4/5 207/4/5
f 209/1/5 197/1/5 196/1/5
f 209/4/5 196/4/5 208/4/5
f 210/2/5 188/2/5 197/2/5
f 210/1/5 197/1/5 209/1/5
f 211/2/5 198/2/5 189/2/5
f 211/1/5 199/1/5 198/1/5
f 212/2/5 190/2/5 199/2/5
f 212/1/5 199/1/5 211/1/5
f 213/4/5 204/4/5 200/4/5
f 213/2/5 200/2/5 191/2/5
f 214/4/5 204/4/5 213/4/5
f 215/4/5 208/4/5 207/4/5
f 216/4/5 208/4/5 215/4/5
f 217/2/5 210/2/5 209/2/5
f 218/1/5 189/1/5 188/1/5
f 218/2/5 210/2/5 217/2/5
f 218/2/5 188/2/5 210/2/5
f 219/2/5 211/2/5 189/2/5
f 219/1/5 189/1/5 218/1/5
f 219/2/5 212/2/5 211/2/5
f 220/1/5 191/1/5 190/1/5
f 220/2/5 212/2/5 219/2/5
f 220/2/5 190/2/5 212/2/5
f 221/2/5 213/2/5 191/2/5
f 221/1/5 191/1/5 220/1/5
f 222/2/5 213/2/5 221/2/5
f 223/4/6 224/4/6 226/4/6
f 226/4/6 224/4/6 227/4/6
f 225/4/6 226/4/6 232/4/6
f 232/4/6 226/4/6 233/4/6
f 228/4/6 229/4/6 234/4/6
f 230/4/6 231/4/6 235/4/6
f 228/4/6 234/4/6 238/4/6
f 230/4/6 235/4/6 239/4/6
f 236/4/6 237/4/6 240/4/6
f 240/4/6 237/4/6 241/4/6
f 228/4/6 238/4/6 243/4/6
f 243/4/6 238/4/6 244/4/6
f 230/4/6 239/4/6 245/4/6
f 245/4/6 239/4/6 246/4/6
f 241/4/6 242/4/6 247/4/6
f 247/4/6 242/4/6 248/4/6
f 249/4/6 250/4/6 257/4/6
f 251/1/6 252/1/6 258/1/6
f 252/2/6 253/2/6 259/2/6
f 258/1/6 252/1/6 259/1/6
f 259/2/6 253/2/6 260/2/6
f 260/2/6 253/2/6 261/2/6
f 253/1/6 254/1/6 262/1/6
f 261/2/6 253/2/6 262/2/6
f 254/2/6 255/2/6 263/2/6
f 262/1/6 254/1/6 263/1/6
f 263/2/6 255/2/6 264/2/6
f 264/2/6 255/2/6 265/2/6
f 256/3/6 257/3/6 267/3/6
f 257/4/6 250/4/6 268/4/6
f 267/3/6 257/3/6 268/3/6
f 258/2/6 259/2/6 269/2/6
f 259/2/6 260/2/6 269/2/6
f 269/2/6 260/2/6 270/2/6
f 260/1/6 261/1/6 271/1/6
f 270/2/6 260/2/6 271/2/6
f 261/2/6 262/2/6 272/2/6
f 271/1/6 261/1/6 272/1/6
f 262/2/6 263/2/6 272/2/6
f 263/2/6 264/2/6 272/2/6
f 272/2/6 264/2/6 273/2/6
f 273/2/6 264/2/6 274/2/6
f 264/1/6 265/1/6 275/1/6
f 274/2/6 264/2/6 275/2/6
f 265/2/6 255/2/6 276/2/6
f 275/1/6 265/1/6 276/1/6
f 266/5/6 267/5/6 279/5/6
f 267/4/6 268/4/6 280/4/6
f 279/5/6 267/5/6 280/5/6
f 268/4/6 250/4/6 281/4/6
f 280/4/6 268/4/6 281/4/6
f 269/1/6 270/1/6 282/1/6
f 270/2/6 271/2/6 283/2/6
f 282/1/6 270/1/6 283/1/6
f 271/2/6 272/2/6 283/2/6
f 272/2/6 273/2/6 283/2/6
f 283/2/6 273/2/6 284/2/6
f 284/2/6 273/2/6 285/2/6
f 273/1/6 274/1/6 286/1/6
f 285/2/6 273/2/6 286/2/6
f 274/2/6 275/2/6 287/2/6
f 286/1/6 274/1/6 287/1/6
f 275/2/6 276/2/6 287/2/6
f 287/2/6 276/2/6 288/2/6
f 276/2/6 255/2/6 289/2/6
f 288/2/6 276/2/6 289/2/6
f 277/4/6 278/4/6 290/4/6
f 290/4/6 278/4/6 291/4/6
f 280/3/6 281/3/6 292/3/6
f 281/4/6 250/4/6 293/4/6
f 292/3/6 281/3/6 293/3/6
f 283/2/6 284/2/6 294/2/6
f 282/2/6 283/2/6 294/2/6
f 294/2/6 284/2/6 295/2/6
f 284/1/6 285/1/6 296/1/6
f 295/2/6 284/2/6 296/2/6
f 285/2/6 286/2/6 297/2/6
f 296/1/6 285/1/6 297/1/6
f 287/2/6 288/2/6 297/2/6
f 286/2/6 287/2/6 297/2/6
f 297/2/6 288/2/6 298/2/6
f 298/2/6 288/2/6 299/2/6
f 288/1/6 289/1/6 300/1/6
f 299/2/6 288/2/6 300/2/6
f 289/2/6 255/2/6 301/2/6
f 300/1/6 289/1/6 301/1/6
f 293/4/6 250/4/6 302/4/6
f 302/4/6 250/4/6 303/4/6
f 294/1/6 295/1/6 304/1/6
f 295/2/6 296/2/6 305/2/6
f 304/1/6 295/1/6 305/1/6
f 296/2/6 297/2/6 305/2/6
f 297/2/6 298/2/6 305/2/6
f 298/1/6 299/1/6 306/1/6
f 305/2/6 298/2/6 306/2/6
f 299/2/6 300/2/6 307/2/6
f 306/1/6 299/1/6 307/1/6
f 300/2/6 301/2/6 307/2/6
f 301/2/6 255/2/6 308/2/6
f 307/2/6 301/2/6 308/2/6
f 309/4/6 310/4/6 311/4/6
f 311/4/6 310/4/6 312/4/6
