# MagicaVoxel @ Ephtracy

# material
mtllib rick-4.mtl
usemtl palette

# normals
vn -1 0 0
vn 1 0 0
vn 0 0 1
vn 0 0 -1
vn 0 -1 0
vn 0 1 0

# texcoords
vt 0.00195313 0.5
vt 0.0332031 0.5
vt 0.0566406 0.5
vt 0.185547 0.5
vt 0.439453 0.5
vt 0.587891 0.5
vt 0.607422 0.5
vt 0.841797 0.5
vt 0.873047 0.5
vt 0.876953 0.5
vt 0.916016 0.5
vt 0.994141 0.5

# verts
v -4.5 7 1
v -4.5 7 -1
v -4.5 8 1
v -4.5 8 -1
v -4.5 16 1
v -4.5 16 -1
v -3.5 8 -1
v -3.5 8 -2
v -3.5 11 -1
v -3.5 11 -2
v -3.5 16 1
v -3.5 16 -1
v -3.5 17 1
v -3.5 17 -1
v -2.5 0 2
v -2.5 0 1
v -2.5 0 -1
v -2.5 1 2
v -2.5 1 1
v -2.5 1 -1
v -2.5 7 1
v -2.5 7 -1
v -2.5 11 -1
v -2.5 11 -2
v -2.5 16 -1
v -2.5 16 -2
v -2.5 17 1
v -2.5 17 -1
v -2.5 17 -2
v -2.5 20 1
v -2.5 20 -1
v -1.5 17 -1
v -1.5 17 -2
v -1.5 20 1
v -1.5 20 -1
v -1.5 20 -2
v -1.5 21 1
v -1.5 21 -1
v 0.5 0 2
v 0.5 0 1
v 0.5 0 -1
v 0.5 1 2
v 0.5 1 1
v 0.5 1 -1
v 0.5 7 1
v 0.5 7 -1
v -0.5 0 2
v -0.5 0 1
v -0.5 0 -1
v -0.5 1 2
v -0.5 1 1
v -0.5 1 -1
v -0.5 7 1
v -0.5 7 -1
v 1.5 17 -1
v 1.5 17 -2
v 1.5 20 1
v 1.5 20 -1
v 1.5 20 -2
v 1.5 21 1
v 1.5 21 -1
v 2.5 0 2
v 2.5 0 1
v 2.5 0 -1
v 2.5 1 2
v 2.5 1 1
v 2.5 1 -1
v 2.5 7 1
v 2.5 7 -1
v 2.5 11 -1
v 2.5 11 -2
v 2.5 16 -1
v 2.5 16 -2
v 2.5 17 1
v 2.5 17 -1
v 2.5 17 -2
v 2.5 20 1
v 2.5 20 -1
v 3.5 8 -1
v 3.5 8 -2
v 3.5 11 -1
v 3.5 11 -2
v 3.5 16 1
v 3.5 16 -1
v 3.5 17 1
v 3.5 17 -1
v 4.5 7 1
v 4.5 7 -1
v 4.5 8 1
v 4.5 8 -1
v 4.5 16 1
v 4.5 16 -1
v -2.5 0 2
v -2.5 1 2
v -0.5 0 2
v -0.5 1 2
v 0.5 0 2
v 0.5 1 2
v 2.5 0 2
v 2.5 1 2
v -4.5 7 1
v -4.5 8 1
v -4.5 16 1
v -3.5 16 1
v -3.5 17 1
v -2.5 1 1
v -2.5 7 1
v -2.5 8 1
v -2.5 9 1
v -2.5 10 1
v -2.5 15 1
v -2.5 16 1
v -2.5 17 1
v -2.5 20 1
v -1.5 10 1
v -1.5 15 1
v -1.5 16 1
v -1.5 17 1
v -1.5 20 1
v -1.5 21 1
v -0.5 1 1
v -0.5 7 1
v -0.5 9 1
v -0.5 10 1
v -0.5 17 1
v -0.5 18 1
v 0.5 1 1
v 0.5 7 1
v 0.5 9 1
v 0.5 10 1
v 0.5 17 1
v 0.5 18 1
v 1.5 10 1
v 1.5 15 1
v 1.5 16 1
v 1.5 17 1
v 1.5 20 1
v 1.5 21 1
v 2.5 1 1
v 2.5 7 1
v 2.5 8 1
v 2.5 9 1
v 2.5 10 1
v 2.5 15 1
v 2.5 16 1
v 2.5 17 1
v 2.5 20 1
v 3.5 16 1
v 3.5 17 1
v 4.5 7 1
v 4.5 8 1
v 4.5 16 1
v -4.5 7 -1
v -4.5 8 -1
v -4.5 16 -1
v -3.5 8 -1
v -3.5 11 -1
v -3.5 16 -1
v -3.5 17 -1
v -2.5 0 -1
v -2.5 1 -1
v -2.5 7 -1
v -2.5 8 -1
v -2.5 11 -1
v -2.5 16 -1
v -2.5 17 -1
v -2.5 20 -1
v -1.5 17 -1
v -1.5 20 -1
v -1.5 21 -1
v -0.5 0 -1
v -0.5 1 -1
v -0.5 7 -1
v 0.5 0 -1
v 0.5 1 -1
v 0.5 7 -1
v 1.5 17 -1
v 1.5 20 -1
v 1.5 21 -1
v 2.5 0 -1
v 2.5 1 -1
v 2.5 7 -1
v 2.5 8 -1
v 2.5 11 -1
v 2.5 16 -1
v 2.5 17 -1
v 2.5 20 -1
v 3.5 8 -1
v 3.5 11 -1
v 3.5 16 -1
v 3.5 17 -1
v 4.5 7 -1
v 4.5 8 -1
v 4.5 16 -1
v -3.5 8 -2
v -3.5 11 -2
v -2.5 11 -2
v -2.5 16 -2
v -2.5 17 -2
v -1.5 15 -2
v -1.5 16 -2
v -1.5 17 -2
v -1.5 20 -2
v -0.5 14 -2
v -0.5 15 -2
v 0.5 14 -2
v 0.5 15 -2
v 1.5 15 -2
v 1.5 16 -2
v 1.5 17 -2
v 1.5 20 -2
v 2.5 11 -2
v 2.5 16 -2
v 2.5 17 -2
v 3.5 8 -2
v 3.5 11 -2
v -2.5 0 2
v -0.5 0 2
v 0.5 0 2
v 2.5 0 2
v -2.5 0 1
v -0.5 0 1
v 0.5 0 1
v 2.5 0 1
v -2.5 0 -1
v -0.5 0 -1
v 0.5 0 -1
v 2.5 0 -1
v -4.5 7 1
v -2.5 7 1
v -0.5 7 1
v 0.5 7 1
v 2.5 7 1
v 4.5 7 1
v -4.5 7 -1
v -2.5 7 -1
v -0.5 7 -1
v 0.5 7 -1
v 2.5 7 -1
v 4.5 7 -1
v -3.5 8 -1
v -2.5 8 -1
v 2.5 8 -1
v 3.5 8 -1
v -3.5 8 -2
v 3.5 8 -2
v -2.5 1 2
v -0.5 1 2
v 0.5 1 2
v 2.5 1 2
v -2.5 1 1
v -0.5 1 1
v 0.5 1 1
v 2.5 1 1
v -3.5 11 -1
v -2.5 11 -1
v 2.5 11 -1
v 3.5 11 -1
v -3.5 11 -2
v -2.5 11 -2
v 2.5 11 -2
v 3.5 11 -2
v -4.5 16 1
v -3.5 16 1
v 3.5 16 1
v 4.5 16 1
v -4.5 16 -1
v -3.5 16 -1
v 3.5 16 -1
v 4.5 16 -1
v -3.5 17 1
v -2.5 17 1
v 2.5 17 1
v 3.5 17 1
v -3.5 17 -1
v -2.5 17 -1
v -1.5 17 -1
v 1.5 17 -1
v 2.5 17 -1
v 3.5 17 -1
v -2.5 17 -2
v -1.5 17 -2
v 1.5 17 -2
v 2.5 17 -2
v -2.5 20 1
v -1.5 20 1
v 1.5 20 1
v 2.5 20 1
v -2.5 20 -1
v -1.5 20 -1
v 1.5 20 -1
v 2.5 20 -1
v -1.5 20 -2
v 1.5 20 -2
v -1.5 21 1
v 1.5 21 1
v -1.5 21 -1
v 1.5 21 -1

# faces
f 3/2/1 2/2/1 1/2/1
f 4/2/1 2/2/1 3/2/1
f 5/8/1 4/8/1 3/8/1
f 6/8/1 4/8/1 5/8/1
f 9/8/1 8/8/1 7/8/1
f 10/8/1 8/8/1 9/8/1
f 13/6/1 12/6/1 11/6/1
f 14/6/1 12/6/1 13/6/1
f 18/12/1 16/12/1 15/12/1
f 19/10/1 17/10/1 16/10/1
f 19/12/1 16/12/1 18/12/1
f 20/10/1 17/10/1 19/10/1
f 21/1/1 20/1/1 19/1/1
f 22/1/1 20/1/1 21/1/1
f 25/8/1 24/8/1 23/8/1
f 26/8/1 24/8/1 25/8/1
f 28/6/1 26/6/1 25/6/1
f 29/6/1 26/6/1 28/6/1
f 30/6/1 28/6/1 27/6/1
f 31/6/1 28/6/1 30/6/1
f 35/6/1 33/6/1 32/6/1
f 36/6/1 33/6/1 35/6/1
f 37/6/1 35/6/1 34/6/1
f 38/6/1 35/6/1 37/6/1
f 42/12/1 40/12/1 39/12/1
f 43/10/1 41/10/1 40/10/1
f 43/12/1 40/12/1 42/12/1
f 44/10/1 41/10/1 43/10/1
f 45/1/1 44/1/1 43/1/1
f 46/1/1 44/1/1 45/1/1
f 47/12/2 48/12/2 50/12/2
f 48/10/2 49/10/2 51/10/2
f 50/12/2 48/12/2 51/12/2
f 51/10/2 49/10/2 52/10/2
f 51/1/2 52/1/2 53/1/2
f 53/1/2 52/1/2 54/1/2
f 55/6/2 56/6/2 58/6/2
f 58/6/2 56/6/2 59/6/2
f 57/6/2 58/6/2 60/6/2
f 60/6/2 58/6/2 61/6/2
f 62/12/2 63/12/2 65/12/2
f 63/10/2 64/10/2 66/10/2
f 65/12/2 63/12/2 66/12/2
f 66/10/2 64/10/2 67/10/2
f 66/1/2 67/1/2 68/1/2
f 68/1/2 67/1/2 69/1/2
f 70/8/2 71/8/2 72/8/2
f 72/8/2 71/8/2 73/8/2
f 72/6/2 73/6/2 75/6/2
f 75/6/2 73/6/2 76/6/2
f 74/6/2 75/6/2 77/6/2
f 77/6/2 75/6/2 78/6/2
f 79/8/2 80/8/2 81/8/2
f 81/8/2 80/8/2 82/8/2
f 83/6/2 84/6/2 85/6/2
f 85/6/2 84/6/2 86/6/2
f 87/2/2 88/2/2 89/2/2
f 89/2/2 88/2/2 90/2/2
f 89/8/2 90/8/2 91/8/2
f 91/8/2 90/8/2 92/8/2
f 95/12/3 94/12/3 93/12/3
f 96/12/3 94/12/3 95/12/3
f 99/12/3 98/12/3 97/12/3
f 100/12/3 98/12/3 99/12/3
f 104/8/3 103/8/3 102/8/3
f 107/2/3 102/2/3 101/2/3
f 108/8/3 104/8/3 102/8/3
f 108/2/3 102/2/3 107/2/3
f 109/8/3 104/8/3 108/8/3
f 110/8/3 104/8/3 109/8/3
f 111/8/3 104/8/3 110/8/3
f 112/6/3 105/6/3 104/6/3
f 112/8/3 104/8/3 111/8/3
f 113/6/3 105/6/3 112/6/3
f 115/8/3 111/8/3 110/8/3
f 115/11/3 110/11/3 109/11/3
f 116/6/3 114/6/3 113/6/3
f 116/8/3 111/8/3 115/8/3
f 116/6/3 113/6/3 112/6/3
f 116/6/3 112/6/3 111/6/3
f 117/6/3 114/6/3 116/6/3
f 118/6/3 114/6/3 117/6/3
f 119/6/3 114/6/3 118/6/3
f 121/1/3 107/1/3 106/1/3
f 121/1/3 108/1/3 107/1/3
f 121/1/3 109/1/3 108/1/3
f 122/1/3 109/1/3 121/1/3
f 123/11/3 115/11/3 109/11/3
f 123/1/3 109/1/3 122/1/3
f 124/5/3 116/5/3 115/5/3
f 124/11/3 115/11/3 123/11/3
f 124/5/3 117/5/3 116/5/3
f 125/2/3 119/2/3 118/2/3
f 125/7/3 118/7/3 117/7/3
f 126/2/3 119/2/3 125/2/3
f 128/1/3 123/1/3 122/1/3
f 129/4/3 124/4/3 123/4/3
f 129/1/3 123/1/3 128/1/3
f 130/5/3 117/5/3 124/5/3
f 130/4/3 124/4/3 129/4/3
f 131/3/3 126/3/3 125/3/3
f 131/7/3 125/7/3 117/7/3
f 132/2/3 119/2/3 126/2/3
f 132/3/3 126/3/3 131/3/3
f 133/5/3 117/5/3 130/5/3
f 133/11/3 130/11/3 129/11/3
f 134/5/3 117/5/3 133/5/3
f 135/7/3 131/7/3 117/7/3
f 135/5/3 117/5/3 134/5/3
f 136/2/3 132/2/3 131/2/3
f 136/7/3 131/7/3 135/7/3
f 137/6/3 120/6/3 119/6/3
f 137/2/3 132/2/3 136/2/3
f 137/2/3 119/2/3 132/2/3
f 138/6/3 120/6/3 137/6/3
f 139/1/3 129/1/3 128/1/3
f 139/1/3 128/1/3 127/1/3
f 140/1/3 129/1/3 139/1/3
f 141/1/3 129/1/3 140/1/3
f 142/11/3 133/11/3 129/11/3
f 142/1/3 129/1/3 141/1/3
f 143/8/3 134/8/3 133/8/3
f 143/11/3 133/11/3 142/11/3
f 144/6/3 136/6/3 135/6/3
f 144/8/3 134/8/3 143/8/3
f 144/6/3 137/6/3 136/6/3
f 144/6/3 135/6/3 134/6/3
f 145/6/3 137/6/3 144/6/3
f 146/6/3 137/6/3 145/6/3
f 147/6/3 137/6/3 146/6/3
f 148/8/3 142/8/3 141/8/3
f 148/8/3 143/8/3 142/8/3
f 148/6/3 146/6/3 145/6/3
f 148/8/3 145/8/3 144/8/3
f 148/8/3 144/8/3 143/8/3
f 149/6/3 146/6/3 148/6/3
f 150/2/3 141/2/3 140/2/3
f 151/8/3 148/8/3 141/8/3
f 151/2/3 141/2/3 150/2/3
f 152/8/3 148/8/3 151/8/3
f 153/2/4 154/2/4 156/2/4
f 154/8/4 155/8/4 156/8/4
f 156/8/4 155/8/4 157/8/4
f 157/8/4 155/8/4 158/8/4
f 153/2/4 156/2/4 162/2/4
f 162/2/4 156/2/4 163/2/4
f 157/8/4 158/8/4 164/8/4
f 158/6/4 159/6/4 165/6/4
f 164/8/4 158/8/4 165/8/4
f 165/6/4 159/6/4 166/6/4
f 166/6/4 167/6/4 168/6/4
f 168/6/4 167/6/4 169/6/4
f 160/10/4 161/10/4 171/10/4
f 162/1/4 163/1/4 172/1/4
f 171/10/4 161/10/4 172/10/4
f 161/1/4 162/1/4 172/1/4
f 172/1/4 163/1/4 173/1/4
f 173/1/4 163/1/4 176/1/4
f 169/6/4 170/6/4 178/6/4
f 178/6/4 170/6/4 179/6/4
f 174/10/4 175/10/4 180/10/4
f 175/1/4 176/1/4 181/1/4
f 180/10/4 175/10/4 181/10/4
f 176/1/4 163/1/4 182/1/4
f 181/1/4 176/1/4 182/1/4
f 182/1/4 163/1/4 183/1/4
f 177/6/4 178/6/4 186/6/4
f 186/6/4 178/6/4 187/6/4
f 182/2/4 183/2/4 188/2/4
f 184/8/4 185/8/4 189/8/4
f 185/6/4 186/6/4 190/6/4
f 189/8/4 185/8/4 190/8/4
f 190/6/4 186/6/4 191/6/4
f 182/2/4 188/2/4 192/2/4
f 188/8/4 189/8/4 193/8/4
f 192/2/4 188/2/4 193/2/4
f 189/8/4 190/8/4 193/8/4
f 193/8/4 190/8/4 194/8/4
f 195/8/4 196/8/4 197/8/4
f 197/8/4 198/8/4 200/8/4
f 198/6/4 199/6/4 201/6/4
f 200/8/4 198/8/4 201/8/4
f 201/6/4 199/6/4 202/6/4
f 197/8/4 200/8/4 204/8/4
f 202/6/4 203/6/4 205/6/4
f 204/8/4 200/8/4 205/8/4
f 200/6/4 201/6/4 205/6/4
f 201/6/4 202/6/4 205/6/4
f 197/8/4 204/8/4 206/8/4
f 204/6/4 205/6/4 206/6/4
f 205/6/4 203/6/4 207/6/4
f 206/6/4 205/6/4 207/6/4
f 206/8/4 207/8/4 208/8/4
f 207/6/4 203/6/4 208/6/4
f 208/6/4 203/6/4 209/6/4
f 209/6/4 203/6/4 210/6/4
f 210/6/4 203/6/4 211/6/4
f 195/8/4 197/8/4 212/8/4
f 197/8/4 206/8/4 212/8/4
f 206/8/4 208/8/4 212/8/4
f 208/8/4 209/8/4 212/8/4
f 209/6/4 210/6/4 213/6/4
f 212/8/4 209/8/4 213/8/4
f 213/6/4 210/6/4 214/6/4
f 195/8/4 212/8/4 215/8/4
f 215/8/4 212/8/4 216/8/4
f 221/12/5 218/12/5 217/12/5
f 222/12/5 218/12/5 221/12/5
f 223/12/5 220/12/5 219/12/5
f 224/12/5 220/12/5 223/12/5
f 225/10/5 222/10/5 221/10/5
f 226/10/5 222/10/5 225/10/5
f 227/10/5 224/10/5 223/10/5
f 228/10/5 224/10/5 227/10/5
f 235/2/5 230/2/5 229/2/5
f 236/2/5 230/2/5 235/2/5
f 237/1/5 232/1/5 231/1/5
f 238/1/5 232/1/5 237/1/5
f 239/2/5 234/2/5 233/2/5
f 240/2/5 234/2/5 239/2/5
f 245/8/5 242/8/5 241/8/5
f 245/8/5 244/8/5 243/8/5
f 245/8/5 243/8/5 242/8/5
f 246/8/5 244/8/5 245/8/5
f 247/12/6 248/12/6 251/12/6
f 251/12/6 248/12/6 252/12/6
f 249/12/6 250/12/6 253/12/6
f 253/12/6 250/12/6 254/12/6
f 255/8/6 256/8/6 259/8/6
f 259/8/6 256/8/6 260/8/6
f 257/8/6 258/8/6 261/8/6
f 261/8/6 258/8/6 262/8/6
f 263/8/6 264/8/6 267/8/6
f 267/8/6 264/8/6 268/8/6
f 265/8/6 266/8/6 269/8/6
f 269/8/6 266/8/6 270/8/6
f 271/6/6 272/6/6 275/6/6
f 275/6/6 272/6/6 276/6/6
f 273/6/6 274/6/6 279/6/6
f 279/6/6 274/6/6 280/6/6
f 276/6/6 277/6/6 281/6/6
f 281/6/6 277/6/6 282/6/6
f 278/6/6 279/6/6 283/6/6
f 283/6/6 279/6/6 284/6/6
f 285/6/6 286/6/6 289/6/6
f 289/6/6 286/6/6 290/6/6
f 287/6/6 288/6/6 291/6/6
f 291/6/6 288/6/6 292/6/6
f 290/6/6 291/6/6 293/6/6
f 293/6/6 291/6/6 294/6/6
f 295/6/6 296/6/6 297/6/6
f 297/6/6 296/6/6 298/6/6
