# MagicaVoxel @ Ephtracy

# material
mtllib rick-6.mtl
usemtl palette

# normals
vn -1 0 0
vn 1 0 0
vn 0 0 1
vn 0 0 -1
vn 0 -1 0
vn 0 1 0

# texcoords
vt 0.0332031 0.5
vt 0.0449219 0.5
vt 0.0566406 0.5
vt 0.185547 0.5
vt 0.349609 0.5
vt 0.509766 0.5
vt 0.587891 0.5
vt 0.677734 0.5
vt 0.705078 0.5
vt 0.712891 0.5
vt 0.876953 0.5
vt 0.916016 0.5
vt 0.994141 0.5

# verts
v -4.5 7 1
v -4.5 7 -1
v -4.5 8 1
v -4.5 8 -1
v -4.5 9 1
v -4.5 9 -1
v -4.5 16 1
v -4.5 16 -1
v -3.5 8 -1
v -3.5 8 -2
v -3.5 9 -1
v -3.5 11 -1
v -3.5 11 -2
v -3.5 16 1
v -3.5 16 -1
v -3.5 17 1
v -3.5 17 -1
v -2.5 0 2
v -2.5 0 1
v -2.5 0 -1
v -2.5 1 2
v -2.5 1 1
v -2.5 1 -1
v -2.5 7 1
v -2.5 7 -1
v -2.5 11 -1
v -2.5 11 -2
v -2.5 17 -1
v -2.5 17 -2
v -2.5 19 1
v -2.5 19 -2
v -2.5 21 1
v -2.5 21 -2
v -1.5 17 1
v -1.5 17 -1
v -1.5 18 -1
v -1.5 18 -2
v -1.5 19 1
v -1.5 19 -1
v -1.5 19 -2
v -1.5 21 -0
v -1.5 21 -2
v -1.5 22 -0
v -1.5 22 -2
v -0.5 17 -1
v -0.5 17 -2
v -0.5 18 -1
v -0.5 18 -2
v 0.5 0 2
v 0.5 0 1
v 0.5 0 -1
v 0.5 1 2
v 0.5 1 1
v 0.5 1 -1
v 0.5 7 1
v 0.5 7 -1
v -0.5 0 2
v -0.5 0 1
v -0.5 0 -1
v -0.5 1 2
v -0.5 1 1
v -0.5 1 -1
v -0.5 7 1
v -0.5 7 -1
v 0.5 17 -1
v 0.5 17 -2
v 0.5 18 -1
v 0.5 18 -2
v 1.5 17 1
v 1.5 17 -1
v 1.5 18 -1
v 1.5 18 -2
v 1.5 19 1
v 1.5 19 -1
v 1.5 19 -2
v 1.5 21 -0
v 1.5 21 -2
v 1.5 22 -0
v 1.5 22 -2
v 2.5 0 2
v 2.5 0 1
v 2.5 0 -1
v 2.5 1 2
v 2.5 1 1
v 2.5 1 -1
v 2.5 7 1
v 2.5 7 -1
v 2.5 11 -1
v 2.5 11 -2
v 2.5 17 -1
v 2.5 17 -2
v 2.5 19 1
v 2.5 19 -2
v 2.5 21 1
v 2.5 21 -2
v 3.5 8 -1
v 3.5 8 -2
v 3.5 9 -1
v 3.5 11 -1
v 3.5 11 -2
v 3.5 16 1
v 3.5 16 -1
v 3.5 17 1
v 3.5 17 -1
v 4.5 7 1
v 4.5 7 -1
v 4.5 8 1
v 4.5 8 -1
v 4.5 9 1
v 4.5 9 -1
v 4.5 16 1
v 4.5 16 -1
v -2.5 0 2
v -2.5 1 2
v -0.5 0 2
v -0.5 1 2
v 0.5 0 2
v 0.5 1 2
v 2.5 0 2
v 2.5 1 2
v -4.5 7 1
v -4.5 8 1
v -4.5 9 1
v -4.5 16 1
v -3.5 16 1
v -3.5 17 1
v -2.5 1 1
v -2.5 7 1
v -2.5 8 1
v -2.5 9 1
v -2.5 10 1
v -2.5 19 1
v -2.5 21 1
v -1.5 10 1
v -1.5 16 1
v -1.5 17 1
v -1.5 19 1
v -1.5 21 1
v -0.5 1 1
v -0.5 7 1
v -0.5 9 1
v -0.5 10 1
v -0.5 17 1
v -0.5 18 1
v 0.5 1 1
v 0.5 7 1
v 0.5 9 1
v 0.5 10 1
v 0.5 17 1
v 0.5 18 1
v 1.5 10 1
v 1.5 16 1
v 1.5 17 1
v 1.5 19 1
v 1.5 21 1
v 2.5 1 1
v 2.5 7 1
v 2.5 8 1
v 2.5 9 1
v 2.5 10 1
v 2.5 19 1
v 2.5 21 1
v 3.5 16 1
v 3.5 17 1
v 4.5 7 1
v 4.5 8 1
v 4.5 9 1
v 4.5 16 1
v -1.5 21 -0
v -1.5 22 -0
v 1.5 21 -0
v 1.5 22 -0
v -4.5 7 -1
v -4.5 8 -1
v -4.5 9 -1
v -4.5 16 -1
v -3.5 8 -1
v -3.5 9 -1
v -3.5 11 -1
v -3.5 16 -1
v -3.5 17 -1
v -2.5 0 -1
v -2.5 1 -1
v -2.5 7 -1
v -2.5 8 -1
v -2.5 11 -1
v -2.5 17 -1
v -1.5 17 -1
v -1.5 18 -1
v -0.5 0 -1
v -0.5 1 -1
v -0.5 7 -1
v -0.5 17 -1
v -0.5 18 -1
v 0.5 0 -1
v 0.5 1 -1
v 0.5 7 -1
v 0.5 17 -1
v 0.5 18 -1
v 1.5 17 -1
v 1.5 18 -1
v 2.5 0 -1
v 2.5 1 -1
v 2.5 7 -1
v 2.5 8 -1
v 2.5 11 -1
v 2.5 17 -1
v 3.5 8 -1
v 3.5 9 -1
v 3.5 11 -1
v 3.5 16 -1
v 3.5 17 -1
v 4.5 7 -1
v 4.5 8 -1
v 4.5 9 -1
v 4.5 16 -1
v -3.5 8 -2
v -3.5 11 -2
v -2.5 11 -2
v -2.5 17 -2
v -2.5 19 -2
v -2.5 21 -2
v -1.5 18 -2
v -1.5 19 -2
v -1.5 21 -2
v -1.5 22 -2
v -0.5 17 -2
v -0.5 18 -2
v 0.5 17 -2
v 0.5 18 -2
v 1.5 18 -2
v 1.5 19 -2
v 1.5 21 -2
v 1.5 22 -2
v 2.5 11 -2
v 2.5 17 -2
v 2.5 19 -2
v 2.5 21 -2
v 3.5 8 -2
v 3.5 11 -2
v -2.5 0 2
v -0.5 0 2
v 0.5 0 2
v 2.5 0 2
v -2.5 0 1
v -0.5 0 1
v 0.5 0 1
v 2.5 0 1
v -2.5 0 -1
v -0.5 0 -1
v 0.5 0 -1
v 2.5 0 -1
v -4.5 7 1
v -2.5 7 1
v -0.5 7 1
v 0.5 7 1
v 2.5 7 1
v 4.5 7 1
v -4.5 7 -1
v -2.5 7 -1
v -0.5 7 -1
v 0.5 7 -1
v 2.5 7 -1
v 4.5 7 -1
v -3.5 8 -1
v -2.5 8 -1
v 2.5 8 -1
v 3.5 8 -1
v -3.5 8 -2
v 3.5 8 -2
v -1.5 18 -1
v -0.5 18 -1
v 0.5 18 -1
v 1.5 18 -1
v -1.5 18 -2
v -0.5 18 -2
v 0.5 18 -2
v 1.5 18 -2
v -2.5 19 1
v -1.5 19 1
v 1.5 19 1
v 2.5 19 1
v -1.5 19 -1
v 1.5 19 -1
v -2.5 19 -2
v -1.5 19 -2
v 1.5 19 -2
v 2.5 19 -2
v -2.5 1 2
v -0.5 1 2
v 0.5 1 2
v 2.5 1 2
v -2.5 1 1
v -0.5 1 1
v 0.5 1 1
v 2.5 1 1
v -3.5 11 -1
v -2.5 11 -1
v 2.5 11 -1
v 3.5 11 -1
v -3.5 11 -2
v -2.5 11 -2
v 2.5 11 -2
v 3.5 11 -2
v -4.5 16 1
v -3.5 16 1
v 3.5 16 1
v 4.5 16 1
v -4.5 16 -1
v -3.5 16 -1
v 3.5 16 -1
v 4.5 16 -1
v -3.5 17 1
v -1.5 17 1
v 1.5 17 1
v 3.5 17 1
v -3.5 17 -1
v -2.5 17 -1
v -1.5 17 -1
v -0.5 17 -1
v 0.5 17 -1
v 1.5 17 -1
v 2.5 17 -1
v 3.5 17 -1
v -2.5 17 -2
v -0.5 17 -2
v 0.5 17 -2
v 2.5 17 -2
v -2.5 21 1
v -1.5 21 1
v 1.5 21 1
v 2.5 21 1
v -1.5 21 -0
v 1.5 21 -0
v -2.5 21 -2
v -1.5 21 -2
v 1.5 21 -2
v 2.5 21 -2
v -1.5 22 -0
v 1.5 22 -0
v -1.5 22 -2
v 1.5 22 -2

# faces
f 3/1/1 2/1/1 1/1/1
f 4/1/1 2/1/1 3/1/1
f 5/6/1 4/6/1 3/6/1
f 6/6/1 4/6/1 5/6/1
f 7/8/1 6/8/1 5/8/1
f 8/8/1 6/8/1 7/8/1
f 11/8/1 10/8/1 9/8/1
f 12/8/1 10/8/1 11/8/1
f 13/8/1 10/8/1 12/8/1
f 16/8/1 15/8/1 14/8/1
f 17/8/1 15/8/1 16/8/1
f 21/13/1 19/13/1 18/13/1
f 22/11/1 20/11/1 19/11/1
f 22/13/1 19/13/1 21/13/1
f 23/11/1 20/11/1 22/11/1
f 24/2/1 23/2/1 22/2/1
f 25/2/1 23/2/1 24/2/1
f 28/8/1 27/8/1 26/8/1
f 29/8/1 27/8/1 28/8/1
f 32/7/1 31/7/1 30/7/1
f 33/7/1 31/7/1 32/7/1
f 36/1/1 35/1/1 34/1/1
f 38/1/1 36/1/1 34/1/1
f 39/7/1 37/7/1 36/7/1
f 39/1/1 36/1/1 38/1/1
f 40/7/1 37/7/1 39/7/1
f 43/7/1 42/7/1 41/7/1
f 44/7/1 42/7/1 43/7/1
f 47/7/1 46/7/1 45/7/1
f 48/7/1 46/7/1 47/7/1
f 52/13/1 50/13/1 49/13/1
f 53/11/1 51/11/1 50/11/1
f 53/13/1 50/13/1 52/13/1
f 54/11/1 51/11/1 53/11/1
f 55/2/1 54/2/1 53/2/1
f 56/2/1 54/2/1 55/2/1
f 57/13/2 58/13/2 60/13/2
f 58/11/2 59/11/2 61/11/2
f 60/13/2 58/13/2 61/13/2
f 61/11/2 59/11/2 62/11/2
f 61/2/2 62/2/2 63/2/2
f 63/2/2 62/2/2 64/2/2
f 65/7/2 66/7/2 67/7/2
f 67/7/2 66/7/2 68/7/2
f 69/1/2 70/1/2 71/1/2
f 69/1/2 71/1/2 73/1/2
f 71/7/2 72/7/2 74/7/2
f 73/1/2 71/1/2 74/1/2
f 74/7/2 72/7/2 75/7/2
f 76/7/2 77/7/2 78/7/2
f 78/7/2 77/7/2 79/7/2
f 80/13/2 81/13/2 83/13/2
f 81/11/2 82/11/2 84/11/2
f 83/13/2 81/13/2 84/13/2
f 84/11/2 82/11/2 85/11/2
f 84/2/2 85/2/2 86/2/2
f 86/2/2 85/2/2 87/2/2
f 88/8/2 89/8/2 90/8/2
f 90/8/2 89/8/2 91/8/2
f 92/7/2 93/7/2 94/7/2
f 94/7/2 93/7/2 95/7/2
f 96/8/2 97/8/2 98/8/2
f 98/8/2 97/8/2 99/8/2
f 99/8/2 97/8/2 100/8/2
f 101/8/2 102/8/2 103/8/2
f 103/8/2 102/8/2 104/8/2
f 105/1/2 106/1/2 107/1/2
f 107/1/2 106/1/2 108/1/2
f 107/6/2 108/6/2 109/6/2
f 109/6/2 108/6/2 110/6/2
f 109/8/2 110/8/2 111/8/2
f 111/8/2 110/8/2 112/8/2
f 115/13/3 114/13/3 113/13/3
f 116/13/3 114/13/3 115/13/3
f 119/13/3 118/13/3 117/13/3
f 120/13/3 118/13/3 119/13/3
f 125/8/3 124/8/3 123/8/3
f 128/1/3 122/1/3 121/1/3
f 129/6/3 123/6/3 122/6/3
f 129/1/3 122/1/3 128/1/3
f 130/8/3 126/8/3 125/8/3
f 130/6/3 123/6/3 129/6/3
f 130/8/3 125/8/3 123/8/3
f 131/8/3 126/8/3 130/8/3
f 134/12/3 131/12/3 130/12/3
f 134/8/3 126/8/3 131/8/3
f 135/8/3 126/8/3 134/8/3
f 136/8/3 126/8/3 135/8/3
f 137/7/3 133/7/3 132/7/3
f 138/7/3 133/7/3 137/7/3
f 139/2/3 129/2/3 128/2/3
f 139/2/3 128/2/3 127/2/3
f 139/2/3 130/2/3 129/2/3
f 140/2/3 130/2/3 139/2/3
f 141/12/3 134/12/3 130/12/3
f 141/2/3 130/2/3 140/2/3
f 142/10/3 135/10/3 134/10/3
f 142/12/3 134/12/3 141/12/3
f 143/1/3 138/1/3 137/1/3
f 143/1/3 137/1/3 136/1/3
f 143/12/3 136/12/3 135/12/3
f 144/1/3 138/1/3 143/1/3
f 146/2/3 141/2/3 140/2/3
f 147/4/3 142/4/3 141/4/3
f 147/2/3 141/2/3 146/2/3
f 148/10/3 135/10/3 142/10/3
f 148/4/3 142/4/3 147/4/3
f 149/3/3 144/3/3 143/3/3
f 149/12/3 143/12/3 135/12/3
f 150/1/3 138/1/3 144/1/3
f 150/3/3 144/3/3 149/3/3
f 151/10/3 135/10/3 148/10/3
f 151/12/3 148/12/3 147/12/3
f 152/12/3 149/12/3 135/12/3
f 152/10/3 135/10/3 151/10/3
f 153/1/3 150/1/3 149/1/3
f 153/12/3 149/12/3 152/12/3
f 154/1/3 138/1/3 150/1/3
f 154/1/3 150/1/3 153/1/3
f 155/1/3 138/1/3 154/1/3
f 156/2/3 147/2/3 146/2/3
f 156/2/3 146/2/3 145/2/3
f 157/2/3 147/2/3 156/2/3
f 158/2/3 147/2/3 157/2/3
f 159/12/3 151/12/3 147/12/3
f 159/2/3 147/2/3 158/2/3
f 160/8/3 153/8/3 152/8/3
f 160/12/3 151/12/3 159/12/3
f 160/8/3 152/8/3 151/8/3
f 161/7/3 155/7/3 154/7/3
f 162/7/3 155/7/3 161/7/3
f 163/8/3 153/8/3 160/8/3
f 163/8/3 160/8/3 159/8/3
f 164/8/3 153/8/3 163/8/3
f 165/1/3 158/1/3 157/1/3
f 166/6/3 159/6/3 158/6/3
f 166/1/3 158/1/3 165/1/3
f 167/8/3 163/8/3 159/8/3
f 167/6/3 159/6/3 166/6/3
f 168/8/3 163/8/3 167/8/3
f 171/7/3 170/7/3 169/7/3
f 172/7/3 170/7/3 171/7/3
f 173/1/4 174/1/4 177/1/4
f 174/6/4 175/6/4 177/6/4
f 175/8/4 176/8/4 178/8/4
f 177/6/4 175/6/4 178/6/4
f 178/8/4 176/8/4 179/8/4
f 179/8/4 176/8/4 180/8/4
f 173/1/4 177/1/4 184/1/4
f 184/1/4 177/1/4 185/1/4
f 180/8/4 181/8/4 186/8/4
f 179/8/4 180/8/4 186/8/4
f 186/8/4 181/8/4 187/8/4
f 182/11/4 183/11/4 190/11/4
f 184/2/4 185/2/4 191/2/4
f 190/11/4 183/11/4 191/11/4
f 183/2/4 184/2/4 191/2/4
f 191/2/4 185/2/4 192/2/4
f 188/1/4 189/1/4 193/1/4
f 193/1/4 189/1/4 194/1/4
f 192/2/4 185/2/4 197/2/4
f 198/1/4 199/1/4 200/1/4
f 200/1/4 199/1/4 201/1/4
f 195/11/4 196/11/4 202/11/4
f 196/2/4 197/2/4 203/2/4
f 202/11/4 196/11/4 203/11/4
f 197/2/4 185/2/4 204/2/4
f 203/2/4 197/2/4 204/2/4
f 204/2/4 185/2/4 205/2/4
f 204/1/4 205/1/4 208/1/4
f 206/8/4 207/8/4 210/8/4
f 210/8/4 207/8/4 211/8/4
f 211/8/4 207/8/4 212/8/4
f 204/1/4 208/1/4 213/1/4
f 208/6/4 209/6/4 214/6/4
f 213/1/4 208/1/4 214/1/4
f 209/8/4 210/8/4 215/8/4
f 214/6/4 209/6/4 215/6/4
f 210/8/4 211/8/4 215/8/4
f 215/8/4 211/8/4 216/8/4
f 217/8/4 218/8/4 219/8/4
f 221/7/4 222/7/4 224/7/4
f 224/7/4 222/7/4 225/7/4
f 219/8/4 220/8/4 227/8/4
f 225/7/4 226/7/4 228/7/4
f 223/7/4 224/7/4 228/7/4
f 224/7/4 225/7/4 228/7/4
f 219/8/4 227/8/4 229/8/4
f 227/7/4 228/7/4 229/7/4
f 228/7/4 226/7/4 230/7/4
f 229/7/4 228/7/4 230/7/4
f 230/7/4 226/7/4 231/7/4
f 231/7/4 226/7/4 232/7/4
f 232/7/4 226/7/4 233/7/4
f 233/7/4 226/7/4 234/7/4
f 217/8/4 219/8/4 235/8/4
f 219/8/4 229/8/4 235/8/4
f 235/8/4 229/8/4 236/8/4
f 232/7/4 233/7/4 237/7/4
f 237/7/4 233/7/4 238/7/4
f 217/8/4 235/8/4 239/8/4
f 239/8/4 235/8/4 240/8/4
f 245/13/5 242/13/5 241/13/5
f 246/13/5 242/13/5 245/13/5
f 247/13/5 244/13/5 243/13/5
f 248/13/5 244/13/5 247/13/5
f 249/11/5 246/11/5 245/11/5
f 250/11/5 246/11/5 249/11/5
f 251/11/5 248/11/5 247/11/5
f 252/11/5 248/11/5 251/11/5
f 259/1/5 254/1/5 253/1/5
f 260/1/5 254/1/5 259/1/5
f 261/2/5 256/2/5 255/2/5
f 262/2/5 256/2/5 261/2/5
f 263/1/5 258/1/5 257/1/5
f 264/1/5 258/1/5 263/1/5
f 269/8/5 266/8/5 265/8/5
f 269/8/5 268/8/5 267/8/5
f 269/8/5 267/8/5 266/8/5
f 270/8/5 268/8/5 269/8/5
f 275/7/5 272/7/5 271/7/5
f 276/7/5 272/7/5 275/7/5
f 277/7/5 274/7/5 273/7/5
f 278/7/5 274/7/5 277/7/5
f 283/7/5 280/7/5 279/7/5
f 284/7/5 282/7/5 281/7/5
f 285/7/5 283/7/5 279/7/5
f 286/7/5 283/7/5 285/7/5
f 287/7/5 282/7/5 284/7/5
f 288/7/5 282/7/5 287/7/5
f 289/13/6 290/13/6 293/13/6
f 293/13/6 290/13/6 294/13/6
f 291/13/6 292/13/6 295/13/6
f 295/13/6 292/13/6 296/13/6
f 297/8/6 298/8/6 301/8/6
f 301/8/6 298/8/6 302/8/6
f 299/8/6 300/8/6 303/8/6
f 303/8/6 300/8/6 304/8/6
f 305/8/6 306/8/6 309/8/6
f 309/8/6 306/8/6 310/8/6
f 307/8/6 308/8/6 311/8/6
f 311/8/6 308/8/6 312/8/6
f 313/8/6 314/8/6 317/8/6
f 317/8/6 314/8/6 318/8/6
f 318/8/6 314/8/6 319/8/6
f 315/8/6 316/8/6 322/8/6
f 322/8/6 316/8/6 323/8/6
f 323/8/6 316/8/6 324/8/6
f 319/8/6 320/8/6 325/8/6
f 318/8/6 319/8/6 325/8/6
f 325/8/6 320/8/6 326/8/6
f 322/8/6 323/8/6 327/8/6
f 321/8/6 322/8/6 327/8/6
f 327/8/6 323/8/6 328/8/6
f 329/7/6 330/7/6 333/7/6
f 330/1/6 331/1/6 333/1/6
f 331/7/6 332/7/6 334/7/6
f 333/1/6 331/1/6 334/1/6
f 329/7/6 333/7/6 335/7/6
f 335/7/6 333/7/6 336/7/6
f 334/7/6 332/7/6 337/7/6
f 337/7/6 332/7/6 338/7/6
f 339/7/6 340/7/6 341/7/6
f 341/7/6 340/7/6 342/7/6
